<?xml version="1.0" encoding="UTF-8" standalone="no"?>
<!-- Created with Inkscape (http://www.inkscape.org/) -->

<svg
   xmlns:dc="http://purl.org/dc/elements/1.1/"
   xmlns:cc="http://creativecommons.org/ns#"
   xmlns:rdf="http://www.w3.org/1999/02/22-rdf-syntax-ns#"
   xmlns:svg="http://www.w3.org/2000/svg"
   xmlns="http://www.w3.org/2000/svg"
   xmlns:sodipodi="http://sodipodi.sourceforge.net/DTD/sodipodi-0.dtd"
   xmlns:inkscape="http://www.inkscape.org/namespaces/inkscape"
   version="1.1"
   id="svg4485"
   width="210"
   height="172"
   viewBox="0 0 210 172"
   sodipodi:docname="floorplan.svg"
   inkscape:version="0.92.4 (5da689c313, 2019-01-14)">
  <metadata
     id="metadata141">
    <rdf:RDF>
      <cc:Work
         rdf:about="">
        <dc:format>image/svg+xml</dc:format>
        <dc:type
           rdf:resource="http://purl.org/dc/dcmitype/StillImage" />
        <dc:title></dc:title>
      </cc:Work>
    </rdf:RDF>
  </metadata>
  <defs
     id="defs4489" />
  <sodipodi:namedview
     pagecolor="#ffffff"
     bordercolor="#666666"
     borderopacity="1"
     objecttolerance="10"
     gridtolerance="10000"
     guidetolerance="10000"
     inkscape:pageopacity="0"
     inkscape:pageshadow="2"
     inkscape:window-width="1246"
     inkscape:window-height="741"
     id="namedview4487"
     showgrid="true"
     inkscape:zoom="2.56"
     inkscape:cx="84.815687"
     inkscape:cy="72.508716"
     inkscape:window-x="2041"
     inkscape:window-y="18"
     inkscape:window-maximized="0"
     inkscape:current-layer="svg4485"
     inkscape:snap-nodes="true"
     inkscape:snap-grids="true"
     inkscape:snap-object-midpoints="true"
     inkscape:snap-global="true"
     inkscape:snap-bbox="false"
     inkscape:object-paths="true"
     inkscape:snap-others="true"
     inkscape:snap-smooth-nodes="false"
     inkscape:snap-midpoints="true"
     inkscape:snap-center="false"
     inkscape:snap-text-baseline="true"
     inkscape:object-nodes="true"
     inkscape:snap-intersection-paths="true">
    <inkscape:grid
       empspacing="1"
       type="xygrid"
       id="grid4496"
       spacingx="1"
       spacingy="1" />
  </sodipodi:namedview>
  <path
     style="fill:#fbf048;fill-opacity:0.64640886;stroke:none;stroke-width:1px;stroke-linecap:butt;stroke-linejoin:miter;stroke-opacity:1"
     d="M 450,97 V 62 h -55 v 25 h -5 v 15 h 30 v 10 h 15 c 0,0 0,-15 15,-15 z"
     id="switch.laundry_light"
     inkscape:connector-curvature="0"
     inkscape:label="switch.laundry_light" />
  <path
     style="fill:#fffc8c;fill-opacity:1;stroke:none;stroke-width:1px;stroke-linecap:butt;stroke-linejoin:miter;stroke-opacity:1"
     d="m 360,-3 h 90 v 35 c 0,0 -88.82815,18.64854 -90,-35 z"
     id="switch.den_light2"
     inkscape:connector-curvature="0"
     inkscape:label="switch.den_light2" />
  <path
     style="fill:#fffdb0;fill-opacity:1;stroke:none;stroke-width:1px;stroke-linecap:butt;stroke-linejoin:miter;stroke-opacity:1"
     d="m 315,-3 h -50 v 50 h 50 c 0,0 26.14161,-27.4854 0,-50 z"
     id="switch.dining_room_light"
     inkscape:connector-curvature="0"
     inkscape:label="switch.dining_room_light" />
  <path
     style="fill:#ffcd1d;fill-opacity:1;stroke:none;stroke-width:1px;stroke-linecap:butt;stroke-linejoin:miter;stroke-opacity:1"
     d="m 410,62 h 25 V 42 c 0,0 -35,-25 -25,20 z"
     id="switch.fireplace_light"
     inkscape:connector-curvature="0"
     inkscape:label="switch.fireplace_light" />
  <path
     style="fill:#fffd65;fill-opacity:1;stroke:#000000;stroke-width:1px;stroke-linecap:butt;stroke-linejoin:miter;stroke-opacity:0"
     d="m 265,47 v 65 H 365 V 92 H 350 V 77 h -5 V 47 Z"
     id="switch.living_room_light"
     inkscape:connector-curvature="0"
     inkscape:label="switch.living_room_light" />
  <path
     style="fill:none;stroke:#000000;stroke-width:2;stroke-linecap:butt;stroke-linejoin:miter;stroke-miterlimit:4;stroke-dasharray:none;stroke-opacity:1"
     d="M 265,112 V -3 h 185 v 180 h -85 v -65 z"
     id="path8487"
     inkscape:connector-curvature="0" />
  <path
     style="fill:none;stroke:#000000;stroke-width:1px;stroke-linecap:butt;stroke-linejoin:miter;stroke-opacity:1"
     d="M 365,112 V 92 h -15 15 V 77 h -15"
     id="path50"
     inkscape:connector-curvature="0" />
  <path
     style="fill:none;stroke:#3122ff;stroke-width:0.9682458px;stroke-linecap:butt;stroke-linejoin:miter;stroke-opacity:1"
     d="M 350,92 V 77"
     id="path8483"
     inkscape:connector-curvature="0" />
  <g
     inkscape:groupmode="layer"
     id="layer1"
     inkscape:label="Black"
     transform="translate(0,10)" />
  <path
     style="fill:none;fill-opacity:1;stroke:#0afdf3;stroke-width:1px;stroke-linecap:butt;stroke-linejoin:miter;stroke-opacity:1"
     d="m 280,112 h 45"
     id="path4830"
     inkscape:connector-curvature="0" />
  <path
     style="fill:none;stroke:#3122ff;stroke-width:1px;stroke-linecap:butt;stroke-linejoin:miter;stroke-opacity:1"
     d="m 345,112 c 15,0 15,0 15,0 v 0"
     id="path4832"
     inkscape:connector-curvature="0" />
  <path
     style="fill:none;stroke:#3122ff;stroke-width:1px;stroke-linecap:butt;stroke-linejoin:miter;stroke-opacity:1"
     d="m 365,117 c 0,10 0,10 0,10"
     id="path4834"
     inkscape:connector-curvature="0" />
  <path
     style="fill:none;stroke:#dfcfb3;stroke-width:1px;stroke-linecap:butt;stroke-linejoin:miter;stroke-opacity:1"
     d="m 365,132 c 0,40 0,40 0,40"
     id="path4836"
     inkscape:connector-curvature="0" />
  <path
     style="fill:none;stroke:#000000;stroke-width:1px;stroke-linecap:butt;stroke-linejoin:miter;stroke-opacity:1"
     d="m 365,112 h 85"
     id="path4838"
     inkscape:connector-curvature="0" />
  <path
     style="fill:none;stroke:#000000;stroke-width:1px;stroke-linecap:butt;stroke-linejoin:miter;stroke-opacity:1"
     d="m 415,112 v 15 h 35"
     id="path4840"
     inkscape:connector-curvature="0" />
  <path
     style="fill:none;stroke:#000000;stroke-width:1px;stroke-linecap:butt;stroke-linejoin:miter;stroke-opacity:1"
     d="m 420,112 v 15"
     id="path4842"
     inkscape:connector-curvature="0" />
  <path
     style="fill:none;stroke:#000000;stroke-width:1px;stroke-linecap:butt;stroke-linejoin:miter;stroke-opacity:1"
     d="m 425,112 v 15"
     id="path4844"
     inkscape:connector-curvature="0" />
  <path
     style="fill:none;stroke:#000000;stroke-width:1px;stroke-linecap:butt;stroke-linejoin:miter;stroke-opacity:1"
     d="m 430,112 v 15"
     id="path4846"
     inkscape:connector-curvature="0" />
  <path
     style="fill:none;stroke:#000000;stroke-width:1px;stroke-linecap:butt;stroke-linejoin:miter;stroke-opacity:1"
     d="m 435,112 v 15"
     id="path4848"
     inkscape:connector-curvature="0" />
  <path
     style="fill:none;stroke:#3122ff;stroke-width:1px;stroke-linecap:butt;stroke-linejoin:miter;stroke-opacity:1"
     d="m 435,112 h 15"
     id="path4850"
     inkscape:connector-curvature="0" />
  <path
     style="fill:#bababa;fill-opacity:0.64640886;stroke:none;stroke-width:0.38162544;stroke-opacity:1"
     d="m 365.86331,144.36632 v -31.86573 h 24.23322 24.23321 v 7.63251 7.63251 h 17.55477 17.55477 v 24.23321 24.23322 H 407.6513 365.86331 Z"
     id="path4852"
     inkscape:connector-curvature="0" />
  <g
     id="camera.front_porch"
     transform="matrix(-0.61552135,0.61552135,-0.79775349,-0.79775349,1482.3259,134.94453)"
     inkscape:label="camera.front_porch"
     style="fill:#cd0000;fill-opacity:1">
    <path
       id="path4918-2-7-1-2-1"
       d="m 895.65469,714.11415 h -0.32455 c -0.0861,0 -0.1682,0.009 -0.249,0.0211 v -0.67968 c 0,-0.39354 -0.39028,-0.71221 -0.87253,-0.71221 h -6.26201 c -0.48161,0 -0.87317,0.31866 -0.87317,0.71221 v 3.03968 c 0,0.39388 0.39156,0.71352 0.87317,0.71352 h 6.26201 c 0.48225,0 0.87253,-0.31964 0.87253,-0.71352 v -0.98093 c 0.0808,0.0128 0.16292,0.0211 0.249,0.0211 h 0.35543 l 1.70036,1.07618 v -3.79464 z"
       inkscape:connector-curvature="0"
       style="fill:#cd0000;fill-opacity:1;stroke-width:0.009375" />
  </g>
  <g
     id="camera.den_video"
     transform="matrix(-0.61552135,0.61552135,-0.79775349,-0.79775349,1564.4847,23.055584)"
     inkscape:label="camera.den_video"
     style="fill:#cd0000;fill-opacity:1">
    <path
       id="path4918-2-7-1-2-6"
       d="m 895.65469,714.11415 h -0.32455 c -0.0861,0 -0.1682,0.009 -0.249,0.0211 v -0.67968 c 0,-0.39354 -0.39028,-0.71221 -0.87253,-0.71221 h -6.26201 c -0.48161,0 -0.87317,0.31866 -0.87317,0.71221 v 3.03968 c 0,0.39388 0.39156,0.71352 0.87317,0.71352 h 6.26201 c 0.48225,0 0.87253,-0.31964 0.87253,-0.71352 v -0.98093 c 0.0808,0.0128 0.16292,0.0211 0.249,0.0211 h 0.35543 l 1.70036,1.07618 v -3.79464 z"
       inkscape:connector-curvature="0"
       style="fill:#cd0000;fill-opacity:1;stroke-width:0.009375" />
  </g>
  <path
     style="fill:none;stroke:#0afdf3;stroke-width:1px;stroke-linecap:butt;stroke-linejoin:miter;stroke-opacity:1"
     d="m 375,177 h 10"
     id="path4888"
     inkscape:connector-curvature="0" />
  <path
     style="fill:none;stroke:#0afdf3;stroke-width:1px;stroke-linecap:butt;stroke-linejoin:miter;stroke-opacity:1"
     d="m 425,177 h 10"
     id="path4890"
     inkscape:connector-curvature="0" />
  <path
     style="fill:none;stroke:#3122ff;stroke-width:1;stroke-linecap:butt;stroke-linejoin:miter;stroke-miterlimit:4;stroke-dasharray:1, 1;stroke-dashoffset:0;stroke-opacity:1"
     d="m 365,117 h 10 c 0,0 0,10 -10,10"
     id="path8250"
     inkscape:connector-curvature="0" />
  <path
     style="fill:none;stroke:#3122ff;stroke-width:1;stroke-linecap:butt;stroke-linejoin:miter;stroke-miterlimit:4;stroke-dasharray:1, 1;stroke-dashoffset:0;stroke-opacity:1"
     d="M 360,112 V 97 c 0,0 -15,0 -15,15"
     id="path8252"
     inkscape:connector-curvature="0" />
  <path
     style="fill:none;stroke:#3122ff;stroke-width:1;stroke-linecap:butt;stroke-linejoin:miter;stroke-miterlimit:4;stroke-dasharray:1, 1;stroke-dashoffset:0;stroke-opacity:1"
     d="M 450,112 V 97 c 0,0 -15,0 -15,15"
     id="path8254"
     inkscape:connector-curvature="0" />
  <g
     id="cover.garage"
     transform="translate(332,20)"
     style="fill:#ededed;fill-opacity:1;stroke:#8c8c8c;stroke-opacity:1"
     inkscape:label="cover.garage">
    <path
       inkscape:connector-curvature="0"
       id="path8268"
       d="m 35,112 h 40 v 40 H 35 c 0,0 0,-40 0,-40 z"
       style="fill:#ededed;fill-opacity:1;stroke:#8c8c8c;stroke-width:1px;stroke-linecap:butt;stroke-linejoin:miter;stroke-opacity:1" />
    <path
       inkscape:connector-curvature="0"
       id="path8270"
       d="m 45,112 v 40 h 10 v -40 h 10 v 40"
       style="fill:#ededed;fill-opacity:1;stroke:#8c8c8c;stroke-width:1px;stroke-linecap:butt;stroke-linejoin:miter;stroke-opacity:1" />
  </g>
  <g
     id="camera.garage_video"
     transform="matrix(-0.61552135,-0.61552135,0.79775349,-0.79775349,424.75159,1292.4735)"
     inkscape:label="camera.garage_video"
     style="fill:#cd0000;fill-opacity:1">
    <path
       id="path4918-2-7-1-2-6-4"
       d="m 895.65469,714.11415 h -0.32455 c -0.0861,0 -0.1682,0.009 -0.249,0.0211 v -0.67968 c 0,-0.39354 -0.39028,-0.71221 -0.87253,-0.71221 h -6.26201 c -0.48161,0 -0.87317,0.31866 -0.87317,0.71221 v 3.03968 c 0,0.39388 0.39156,0.71352 0.87317,0.71352 h 6.26201 c 0.48225,0 0.87253,-0.31964 0.87253,-0.71352 v -0.98093 c 0.0808,0.0128 0.16292,0.0211 0.249,0.0211 h 0.35543 l 1.70036,1.07618 v -3.79464 z"
       inkscape:connector-curvature="0"
       style="fill:#cd0000;fill-opacity:1;stroke-width:0.009375" />
  </g>
  <path
     style="fill:none;stroke:#000000;stroke-width:1px;stroke-linecap:butt;stroke-linejoin:miter;stroke-opacity:1"
     d="M 365,77 V 62 H 345 V 47"
     id="path8467"
     inkscape:connector-curvature="0" />
  <path
     style="fill:none;stroke:#000000;stroke-width:1px;stroke-linecap:butt;stroke-linejoin:miter;stroke-opacity:1"
     d="m 345,62 v 15 h 5 V 62 h 5 v 15 h 5 V 62"
     id="path8469"
     inkscape:connector-curvature="0" />
  <path
     style="fill:none;stroke:#000000;stroke-width:1px;stroke-linecap:butt;stroke-linejoin:miter;stroke-opacity:1"
     d="M 330,47 H 305"
     id="path8473"
     inkscape:connector-curvature="0" />
  <path
     style="fill:none;stroke:#000000;stroke-width:1px;stroke-linecap:butt;stroke-linejoin:miter;stroke-opacity:1"
     d="m 265,47 h 10"
     id="path8475"
     inkscape:connector-curvature="0" />
  <path
     style="fill:none;stroke:#000000;stroke-width:1px;stroke-linecap:butt;stroke-linejoin:miter;stroke-opacity:1"
     d="m 350,47 v 15 h 5 V 47 h 5 v 15 h 5 V 47 h -5"
     id="path8477"
     inkscape:connector-curvature="0" />
  <path
     style="fill:none;stroke:#000000;stroke-width:1px;stroke-linecap:butt;stroke-linejoin:miter;stroke-opacity:1"
     d="m 365,62 h 30"
     id="path8479"
     inkscape:connector-curvature="0" />
  <path
     style="fill:none;stroke:#000000;stroke-width:1px;stroke-linecap:butt;stroke-linejoin:miter;stroke-opacity:1"
     d="m 410,62 h 40"
     id="path8481"
     inkscape:connector-curvature="0" />
  <path
     style="fill:none;stroke:#3122ff;stroke-width:1;stroke-linecap:butt;stroke-linejoin:miter;stroke-miterlimit:4;stroke-dasharray:1, 1;stroke-dashoffset:0;stroke-opacity:1"
     d="m 350,92 10,-2 -10,-2"
     id="path8485"
     inkscape:connector-curvature="0" />
  <path
     style="fill:none;stroke:#000000;stroke-width:1px;stroke-linecap:butt;stroke-linejoin:miter;stroke-opacity:1"
     d="M 435,62 V 42 h 15"
     id="path52"
     inkscape:connector-curvature="0" />
  <path
     style="fill:none;stroke:#000000;stroke-width:1px;stroke-linecap:butt;stroke-linejoin:miter;stroke-opacity:1"
     d="m 347.41583,74.329876 15.38144,-9.714598 -5.66685,0.5397 2.6985,3.777899 2.1588,-4.317599"
     id="path54"
     inkscape:connector-curvature="0" />
  <path
     style="fill:none;stroke:#000000;stroke-width:1px;stroke-linecap:butt;stroke-linejoin:miter;stroke-opacity:1"
     d="m 346.9,48.577777 15.38145,9.714598 -5.66685,-0.5397 2.6985,-3.777899 2.1588,4.317599"
     id="path54-2"
     inkscape:connector-curvature="0" />
  <path
     style="fill:none;stroke:#000000;stroke-width:1px;stroke-linecap:butt;stroke-linejoin:miter;stroke-opacity:1"
     d="m 345,47 h 15 V -3"
     id="path71"
     inkscape:connector-curvature="0" />
  <g
     transform="matrix(0.3,0,0,0.3,405.9,139.5971)"
     id="binary_sensor.garage_control_online"
     inkscape:label="binary_sensor.garage_control_online">
    <path
       inkscape:connector-curvature="0"
       d="M 1,9 V 55 H 63 V 9 Z m 4,8 H 3 v -2 h 2 z m 0,2 v 2 H 3 v -2 z m 0,-8 v 2 H 3 V 11 Z M 5,49 H 3 V 47 H 5 Z M 5,45 H 3 v -2 h 2 z m -2,6 h 2 v 2 H 3 Z m 4,2 V 41 H 3 V 23 H 7 V 11 h 54 v 2 h -7 c -2.785,0 -5.189,1.639 -6.315,4 H 46 c -2.757,0 -5,2.243 -5,5 v 12 c 0,2.757 2.243,5 5,5 h 1 v 2.343 L 54.511,51 H 61 v 2 z M 61,36 h -7 v 8 h 7 v 5 H 55.489 L 49,40.657 V 20 c 0,-2.757 2.243,-5 5,-5 h 7 v 11 z m 0,2 v 4 H 56 V 38 Z M 47,20 v 1 h -2 v 2 h 2 v 10 h -2 v 2 h 2 v 2 h -1 c -1.654,0 -3,-1.346 -3,-3 V 22 c 0,-1.654 1.346,-3 3,-3 h 1.08 C 47.033,19.328 47,19.66 47,20 Z"
       id="path2" />
    <path
       inkscape:connector-curvature="0"
       d="m 31,21 h -2 v -4 h -2 v 4 h -2 v -4 h -2 v 4 h -2 v -4 h -2 v 4 h -2 v -4 h -2 v 4 h -2 v 4 H 9 v 2 h 4 v 2 H 9 v 2 h 4 v 2 H 9 v 2 h 4 v 2 H 9 v 2 h 4 v 4 h 2 v 4 h 2 v -4 h 2 v 4 h 2 v -4 h 2 v 4 h 2 v -4 h 2 v 4 h 2 v -4 h 2 v -4 h 4 v -2 h -4 v -2 h 4 v -2 h -4 v -2 h 4 v -2 h -4 v -2 h 4 V 25 H 31 Z M 29,41 H 15 V 23 h 14 z"
       id="path4" />
    <path
       inkscape:connector-curvature="0"
       d="M 27,25 H 17 V 39 H 27 Z M 25,37 H 19 V 27 h 6 z"
       id="path6" />
    <rect
       x="5"
       y="25"
       width="2"
       height="2"
       id="rect8" />
    <rect
       x="5"
       y="29"
       width="2"
       height="2"
       id="rect10" />
    <rect
       x="5"
       y="33"
       width="2"
       height="2"
       id="rect12" />
    <rect
       x="5"
       y="37"
       width="2"
       height="2"
       id="rect14" />
    <rect
       x="37"
       y="25"
       width="2"
       height="2"
       id="rect16" />
    <rect
       x="37"
       y="29"
       width="2"
       height="2"
       id="rect18" />
    <rect
       x="37"
       y="33"
       width="2"
       height="2"
       id="rect20" />
    <rect
       x="37"
       y="37"
       width="2"
       height="2"
       id="rect22" />
    <rect
       x="15"
       y="13"
       width="2"
       height="2"
       id="rect24" />
    <rect
       x="19"
       y="13"
       width="2"
       height="2"
       id="rect26" />
    <rect
       x="23"
       y="13"
       width="2"
       height="2"
       id="rect28" />
    <rect
       x="27"
       y="13"
       width="2"
       height="2"
       id="rect30" />
    <rect
       x="15"
       y="49"
       width="2"
       height="2"
       id="rect32" />
    <rect
       x="19"
       y="49"
       width="2"
       height="2"
       id="rect34" />
    <rect
       x="23"
       y="49"
       width="2"
       height="2"
       id="rect36" />
    <rect
       x="27"
       y="49"
       width="2"
       height="2"
       id="rect38" />
    <path
       inkscape:connector-curvature="0"
       d="m 56,21 c -2.757,0 -5,2.243 -5,5 0,2.757 2.243,5 5,5 2.757,0 5,-2.243 5,-5 0,-2.757 -2.243,-5 -5,-5 z m 0,8 c -1.654,0 -3,-1.346 -3,-3 0,-1.654 1.346,-3 3,-3 1.654,0 3,1.346 3,3 0,1.654 -1.346,3 -3,3 z"
       id="path40" />
  </g>
  <g
     id="camera.living"
     transform="matrix(0.61552135,-0.61552135,0.79775349,0.79775349,-849.4847,85.944416)"
     inkscape:label="camera.living"
     style="fill:#cd0000;fill-opacity:1">
    <path
       id="path4918-2-7-1-2-6-0"
       d="m 895.65469,714.11415 h -0.32455 c -0.0861,0 -0.1682,0.009 -0.249,0.0211 v -0.67968 c 0,-0.39354 -0.39028,-0.71221 -0.87253,-0.71221 h -6.26201 c -0.48161,0 -0.87317,0.31866 -0.87317,0.71221 v 3.03968 c 0,0.39388 0.39156,0.71352 0.87317,0.71352 h 6.26201 c 0.48225,0 0.87253,-0.31964 0.87253,-0.71352 v -0.98093 c 0.0808,0.0128 0.16292,0.0211 0.249,0.0211 h 0.35543 l 1.70036,1.07618 v -3.79464 z"
       inkscape:connector-curvature="0"
       style="fill:#cd0000;fill-opacity:1;stroke-width:0.009375" />
  </g>
  <path
     style="fill:none;stroke:#000000;stroke-width:1px;stroke-linecap:butt;stroke-linejoin:miter;stroke-opacity:1"
     d="m 315,-3 c 0,10 0,10 0,10"
     id="path3777"
     inkscape:connector-curvature="0" />
  <path
     style="fill:none;stroke:#0afdf3;stroke-width:1px;stroke-linecap:butt;stroke-linejoin:miter;stroke-opacity:1"
     d="m 275,-3 c 30,0 30,0 30,0"
     id="path3779"
     inkscape:connector-curvature="0" />
  <path
     style="fill:#3122ff;fill-opacity:1;stroke:#3122ff;stroke-width:0.71100003;stroke-linecap:butt;stroke-linejoin:miter;stroke-miterlimit:4;stroke-dasharray:0.71100003, 0.71100003;stroke-dashoffset:0;stroke-opacity:1"
     d="m 275.12715,-0.698499 c 15.15825,0 15.15825,0 15.15825,0"
     id="path3779-5"
     inkscape:connector-curvature="0" />
  <g
     transform="matrix(5.0625e-4,0,0,5.0625e-4,266.80395,8.9148457)"
     style="stroke-width:1975.30859375;stroke-miterlimit:4;stroke-dasharray:none;image-rendering:optimizeQuality;shape-rendering:geometricPrecision;text-rendering:geometricPrecision"
     id="switch.dining_room_light2"
     inkscape:label="switch.dining_room_light2">
    <path
       inkscape:connector-curvature="0"
       class="fil0"
       d="m 31866.12,30047.31 c 2871.86,-2559.49 12329.56,-2501.6 15367.38,-6.86 193.4,158.79 159.98,188.38 160.54,-82.24 0.34,-158.2 -15.85,-172.88 -104.2,-310.24 -1894.2,-2945.41 -13571.23,-2980.12 -15467.08,-8.65 -80.5,126.2 -100.25,142.18 -100.25,288.04 -5.51,262.27 -10.11,256.95 143.61,119.95 z m 7455.33,-21566.9 c -231.12,7.24 -242.12,-344.16 -11.02,-351.4 930.24,-31.89 2253.23,73.06 3114.6,435.12 212.99,89.72 76.56,413.56 -136.42,323.84 -808.97,-340.04 -2093.29,-437.52 -2967.16,-407.56 z m 21209.66,30146.41 c 217.52,-78.84 337.38,251.88 119.88,330.72 -2009.12,726.83 -2987.25,295.19 -4804.4,-585.47 -208.43,-100.57 -55.52,-417.54 152.96,-316.94 1726.6,836.78 2622.17,1262.45 4531.56,571.69 z m 3893.74,-31195.5 c -201.2,-114.19 -27.57,-420.11 173.62,-305.92 1993.28,1133.17 2618.04,2890.26 843.77,4608.15 -165.84,161.31 -411.14,-90.85 -245.28,-252.18 1600.85,-1549.92 1014.52,-3034.35 -772.11,-4050.05 z M 46669.28,58079.05 c 365.05,181.5 599.34,554.15 599.34,964.19 v 6667.5 c 0,1415.81 -2151.96,1415.81 -2151.96,0 v -6667.5 c 0,-417.99 243.48,-796.61 619.37,-973.89 233.97,-110.31 192.03,-6.86 192.03,-303.08 V 36687.53 c 0,-556.5 20.3,-449.67 -633.2,-243.4 -553.04,174.56 -957.49,284.15 -1617.34,400.8 -2936.69,519.19 -6985.71,398.42 -9740.33,-445.48 -1556.44,-476.82 -2657.71,-1191.21 -2878.09,-2140.2 -53.42,-230.11 -42.14,-459.66 -42.14,-693.84 0,-1358.2 0,-2716.39 0,-4074.59 0,-386.48 66.96,-332.96 -314.04,-318.97 -7345.6,270.35 -14810.48,1081.2 -22079.92,2151.62 -2038.59,300.18 -4270.93,-79.2 -5426.36,-622.6 -1815.72,-853.92 -841.89,-1831.16 737.46,-2143.55 8152.25,-1612.46 18450.73,-2488.73 26786.3,-2688.54 366.49,-8.78 277.83,-0.51 306.19,-381.43 157.99,-2122.01 1075.16,-3562.6 2357.64,-4498.04 843.87,-614.62 1835.63,-985.18 2885.17,-1221.66 239.77,-54.01 175.65,-23.06 244.46,-267.76 215.64,-766.92 546,-1528.56 1243.76,-1973 223.28,-142.19 171.93,-74.39 171.93,-361.36 v -1477 c 0,-215.14 38.5,-179.59 -167.34,-206.61 -976.33,-128.27 -1828.75,-370.76 -2459.51,-688.58 -601.62,-303.15 -1018.24,-684.3 -1182.15,-1117.35 -69.25,-182.97 -93.28,-377.01 -67.38,-570.78 l -8.6,-3965.44 c -1.62,-756.34 469.25,-1199.19 1102.54,-1551.7 2000.16,-1113.36 5439.67,-1066.84 7599.2,-364.16 1068.95,347.82 1950.57,914.48 1950.57,1817.6 v 2391.35 c 0,552.21 -57.59,517.71 306.39,112.35 188.9,-210.38 379.87,-419.47 572.76,-626.87 2125.73,-2285.63 4488.14,-4370.96 6901.78,-5764.47 3626.12,-2093.53 9284.27,-1647.56 12848.26,378.61 3186.44,1811.53 4179.53,4640.88 1345.7,7384.63 -1128.84,1092.97 -2885.45,2554.23 -5898.67,4567.57 -2904.09,1940.4 -6978.6,4396.39 -12789.1,7534.13 -313.2,169.1 -256.44,83.08 -175.48,422.12 54.39,227.77 98.96,474.36 135.35,740.35 62.43,456.55 -32.05,358.08 416.92,483.38 2360.41,658.77 5235.99,1705.03 8124.89,2907.87 3315.25,1380.35 6656.82,2970.46 9263.34,4420.14 1589.11,883.79 2365.35,2198.72 671.99,3476.13 -1549.94,1169.21 -3327.28,2317.92 -5157.28,2979.95 -2572.27,930.57 -3784.01,421.53 -6197.29,-748.09 -2454.84,-1189.73 -5017.88,-2746.18 -7247.81,-4321.42 -337.07,-238.13 -198.61,-204.07 -502.34,56.69 -154.04,132.27 -328.72,256.39 -520.13,375.14 -398.72,247.35 -338.94,138.61 -338.94,691.26 V 57779.5 c 0,299.44 -29.56,179.46 212.06,299.55 z m -847.06,964.19 v 6667.5 c 0,486.97 740.84,486.97 740.84,0 v -6667.5 c 0,-480.67 -740.84,-480.67 -740.84,0 z M 30632.09,26574.07 c -8289.02,203.63 -18456.62,1071.62 -26562.95,2675.01 -796.59,157.55 -1443.25,597.29 -255.36,1008.65 1295.63,404.77 2803.17,648.83 4707.24,368.46 7312.01,-1076.7 14828.21,-1890.75 22216.88,-2159.25 355.48,-12.9 279.06,25.16 279.06,-351.96 v -1283.14 c 0,-327.55 -47.53,-266.05 -384.87,-257.77 z m 15014.17,6018.56 c -3113.15,-1364.79 -9071.18,-1364.79 -12184.33,0 -2805,1229.69 -1743.99,2391.99 679.2,3134.34 2652.49,812.62 6582.65,924.21 9415.13,423.44 1054.62,-186.45 2827.54,-613.81 3542.59,-1492.37 798.79,-981.55 -675.92,-1724.93 -1452.59,-2065.41 z m 2573.51,2207.57 c 2196.77,1552.75 4733.86,3094.33 7152.59,4266.56 2224.67,1078.16 3281.07,1578.09 5651.59,720.53 1769.32,-640.08 3474.75,-1750.8 4972.62,-2880.73 1242.55,-937.3 543.76,-1669.13 -589.31,-2299.29 -2578.83,-1434.27 -5894.71,-3011.58 -9191.68,-4384.32 -2771.26,-1153.85 -5522.94,-2160.67 -7804.44,-2813.29 -476.69,-136.36 -361.48,-148.54 -342.53,347.64 76.68,2002.78 22.62,4129.6 22.62,6146.78 0,132.74 -14.12,261.4 -41.59,385.99 -85.48,387.74 -190.69,255.07 170.13,510.13 z m -1412.06,-9178.96 c -994.21,415.19 -1598.58,239.51 -2745.97,-373.32 -1639.75,-875.79 -3063.95,-1325.83 -4903.21,-1667.57 -948.07,-176.1 -1329.75,-844.98 -1156.26,-1778.63 68.82,-370.42 227.44,-809.66 488.71,-1325.21 146.01,-288.07 169.81,-237.58 -183.45,-230.99 -1567.46,29.27 -3241.7,386.51 -4509.9,1311.53 -1141.65,832.72 -1953.63,2134.29 -2075.13,4073.75 l 0.01,2704.67 c 0,409 -64.03,392.36 219.95,168.4 3008.09,-2372.78 11881.34,-2392.95 15064.3,-118.69 458.12,327.36 388.71,447.94 371.04,-221.51 -21.08,-799.72 -57.22,-1652.16 -225.15,-2431.78 -61.59,-285.94 -100.35,-212.79 -344.94,-110.65 z M 60381.74,16900.4 c 2970.69,-1984.91 4695.17,-3418.46 5799.45,-4487.65 2487.66,-2408.58 1571.42,-4691.49 -1202.38,-6268.43 -3347.09,-1902.87 -8741.64,-2349.74 -12150.98,-381.37 -2343.29,1352.89 -4651.35,3393.04 -6736.42,5634.95 -1316.08,1415.07 -6947.24,8108.06 -7397.38,10530.6 -101.53,546.41 30.97,855.99 591.28,960.09 1892.6,351.65 3385.73,818.48 5078.08,1722.12 1044.46,557.78 1490.74,728.88 2585.96,164.36 4469.67,-2302.68 9243.43,-5075.76 13432.39,-7874.67 z M 43558.77,12612.62 c -275.67,-206.69 -669.29,-394.16 -1150.39,-550.46 -1833.49,-595.66 -4635.62,-586.45 -6426.19,124.7 -1262.39,501.36 -1815.78,1245.84 -362.55,1978.1 543.57,273.9 1282.05,486.52 2136.98,606.67 140.39,19.73 172.93,39.54 172.93,-126.4 0,-1274.07 2880.76,-1266.93 2880.76,0 0,185.8 -22.15,153.75 172.65,126.26 466.17,-65.86 935.08,-163.89 1382.39,-305.43 314.33,-99.46 267.03,-89.64 468.95,-344.8 248.82,-314.37 503.25,-629.17 762.87,-943.18 256.95,-310.79 334.99,-285.48 -38.4,-565.46 z m -1848.19,2748.16 c -232.89,47.42 -478.12,88.13 -733.99,121.42 -212.45,27.65 -166.28,-0.59 -166.28,228.12 v 886.34 c 0,322.37 -5.75,245.22 168.05,0.33 255.41,-359.91 520.35,-724.7 794.09,-1092.42 174.98,-235.06 180.3,-193.07 -61.87,-143.79 z m -1960.41,2505.26 c -541.67,-89.1 -1067.06,-41.59 -1499.49,195.5 -568.2,311.53 -841.3,812.87 -1001.3,1421.53 -45.58,173.38 -8.16,122.91 277.4,98.58 427.91,-36.47 855.24,-48.22 1274.41,-38.74 268.68,6.07 199.07,36.98 343.86,-195.72 233.03,-374.54 481.81,-762.8 745.18,-1161.74 184.38,-279.29 235.77,-257.62 -140.06,-319.41 z m -4668.86,-6023.18 c 191.68,-112.31 406.57,-215.75 641.82,-309.18 1949.87,-774.41 4907.01,-789.68 6902.97,-141.24 364.99,119.88 691.05,261.75 975.96,422.28 467.04,263.19 389.26,379.43 389.26,-231.93 V 9041.51 c 0,-524.4 -640.63,-891.56 -1452.4,-1142.27 -2007.64,-620.07 -5187.59,-733.28 -7050.05,303.43 -398.23,221.67 -742.51,468.12 -741.48,945.94 l 5.48,2531.19 c 1.09,494.77 -55.15,387.8 328.44,163.06 z m 3752.4,5312.37 c 365.87,-48.37 747.82,-37.92 1107.34,30.39 206.49,39.24 163.7,67 163.7,-165.61 v -2226.65 c 0,-149.59 29.55,-219.66 -132.72,-292.03 -276.83,-123.47 -910.46,-125.54 -1194.56,-5.64 -173.8,73.33 -142.36,144.28 -142.36,302.08 v 2173.73 c 0,261.38 -43,215.67 198.6,183.73 z m 1551.99,18573.56 c -231.11,0.91 -232.48,-350.49 -1.38,-351.4 1430.27,-9.56 3424.55,-181.95 4715.73,-828.86 206.62,-103.32 363.73,210.85 157.1,314.18 -1351.08,676.93 -3375.25,856.1 -4871.45,866.08 z m 6750.52,-4806.36 c -2281.52,-2707.58 -13050.47,-2685.05 -15193.31,29.84 -260.85,330.52 -220.39,330.16 -220.39,699.33 v 793.75 c 0,532.2 -53.65,419.65 332.44,136.28 322.44,-236.66 701.47,-447.88 1125.85,-633.92 3296.37,-1445.11 9450.2,-1445.11 12746.57,0 374.13,164.02 713.01,347.6 1008.95,550.93 534.48,367.21 449.34,527.27 449.34,-229.64 v -568.96 c 0,-407.22 30.53,-445.31 -249.45,-777.61 z"
       id="path6-5"
       style="stroke-width:1975.30859375;stroke-miterlimit:4;stroke-dasharray:none" />
  </g>
  <g
     transform="matrix(0.34867844,0,0,0.34867844,259.77308,-269.19808)"
     id="switch.living_room_light2"
     inkscape:label="switch.living_room_light2">
    <path
       inkscape:connector-curvature="0"
       style="color:#000000;text-indent:0;text-transform:none;direction:ltr;baseline-shift:baseline;display:inline;overflow:visible;visibility:visible;fill:#000000;fill-opacity:1;fill-rule:evenodd;stroke:none;enable-background:accumulate"
       d="m 49.305247,958.34841 c -0.2616,0.004 -0.5224,0.0599 -0.7626,0.16357 -0.2402,0.1037 -0.4597,0.25511 -0.642,0.44281 -0.1823,0.1877 -0.3273,0.41155 -0.4239,0.6547 -0.0966,0.24316 -0.1449,0.50542 -0.1412,0.76705 v 3.28 c -0.005,0.26489 0.0433,0.53068 0.1412,0.77686 0.098,0.24618 0.2454,0.47255 0.431,0.66165 0.1855,0.1891 0.4091,0.34076 0.6534,0.4433 0.2443,0.10254 0.5091,0.15587 0.774,0.15587 0.265,0 0.5298,-0.0533 0.7741,-0.15587 0.2443,-0.10254 0.4678,-0.2542 0.6534,-0.4433 0.1856,-0.1891 0.333,-0.41547 0.4309,-0.66165 0.0979,-0.24618 0.1463,-0.51197 0.1413,-0.77686 v -3.28 c 0.0038,-0.26662 -0.0465,-0.53389 -0.1468,-0.78094 -0.1004,-0.24705 -0.2507,-0.47366 -0.4393,-0.66214 -0.1886,-0.18848 -0.4154,-0.33866 -0.6625,-0.43882 -0.2471,-0.10016 -0.5144,-0.1502 -0.781,-0.14623 z"
       marker="none"
       visibility="visible"
       display="inline"
       overflow="visible"
       id="path2-1" />
    <path
       inkscape:connector-curvature="0"
       style="color:#000000;text-indent:0;text-transform:none;direction:ltr;baseline-shift:baseline;display:inline;overflow:visible;visibility:visible;fill:#000000;fill-opacity:1;fill-rule:evenodd;stroke:none;enable-background:accumulate"
       d="m 57.466447,960.45185 c -0.3566,-0.003 -0.7136,0.0915 -1.0219,0.27062 -0.3084,0.17915 -0.5673,0.44244 -0.7412,0.75375 l -1.64,2.84 c -0.1341,0.22683 -0.2227,0.48039 -0.259,0.74134 -0.0364,0.26094 -0.0206,0.52907 0.0463,0.78391 0.0669,0.25484 0.1848,0.49619 0.3446,0.70564 0.1598,0.20944 0.3615,0.38682 0.5897,0.51858 0.2282,0.13176 0.4826,0.21781 0.7439,0.25158 0.2613,0.0338 0.5292,0.0152 0.7834,-0.0542 0.2542,-0.0694 0.4943,-0.18971 0.7021,-0.35165 0.2079,-0.16193 0.3832,-0.3654 0.5127,-0.59487 l 1.64,-2.84 c 0.1793,-0.3006 0.2778,-0.64897 0.2823,-0.99899 0.0045,-0.35002 -0.0849,-0.70081 -0.2565,-1.00594 -0.1715,-0.30513 -0.4248,-0.56383 -0.7262,-0.74185 -0.3014,-0.17803 -0.6502,-0.27494 -1.0002,-0.2779 z"
       marker="none"
       visibility="visible"
       display="inline"
       overflow="visible"
       id="path4-4" />
    <path
       inkscape:connector-curvature="0"
       style="color:#000000;text-indent:0;text-transform:none;direction:ltr;baseline-shift:baseline;display:inline;overflow:visible;visibility:visible;fill:#000000;fill-opacity:1;fill-rule:evenodd;stroke:none;enable-background:accumulate"
       d="m 63.483647,966.33341 c -0.3797,-0.0122 -0.7622,0.0867 -1.0884,0.28125 l -2.84,1.64 c -0.2314,0.12841 -0.4369,0.30328 -0.6007,0.51118 -0.1638,0.20789 -0.2857,0.44862 -0.3563,0.70366 -0.0707,0.25505 -0.0901,0.52419 -0.0566,0.78672 0.0334,0.26253 0.1196,0.51823 0.252,0.74741 0.1323,0.22918 0.3107,0.43167 0.5214,0.59186 0.2106,0.16019 0.4534,0.27796 0.7096,0.34425 0.2562,0.0663 0.5257,0.081 0.7876,0.0431 0.2619,-0.0379 0.5161,-0.1285 0.743,-0.26475 l 2.84,-1.64 c 0.3782,-0.21142 0.6842,-0.54928 0.8574,-0.94645 0.1731,-0.39717 0.2124,-0.85135 0.1099,-1.27233 -0.1025,-0.42098 -0.3461,-0.80631 -0.6824,-1.07945 -0.3364,-0.27314 -0.7635,-0.43251 -1.1965,-0.44646 z"
       marker="none"
       visibility="visible"
       display="inline"
       overflow="visible"
       id="path6-2" />
    <path
       inkscape:connector-curvature="0"
       style="color:#000000;text-indent:0;text-transform:none;direction:ltr;baseline-shift:baseline;display:inline;overflow:visible;visibility:visible;fill:#000000;fill-opacity:1;fill-rule:evenodd;stroke:none;enable-background:accumulate"
       d="m 41.173647,960.58341 c -0.3448,0.0133 -0.6856,0.1178 -0.9786,0.29993 -0.293,0.18214 -0.5375,0.44152 -0.702,0.74476 -0.1645,0.30324 -0.2487,0.64962 -0.2417,0.99455 0.007,0.34493 0.1052,0.6876 0.282,0.98389 l 1.64,2.83999 c 0.1295,0.22947 0.3048,0.43294 0.5126,0.59488 0.2079,0.16193 0.448,0.28221 0.7022,0.35165 0.2541,0.0694 0.5221,0.088 0.7834,0.0542 0.2613,-0.0338 0.5157,-0.11982 0.7439,-0.25158 0.2281,-0.13176 0.4298,-0.30914 0.5897,-0.51858 0.1598,-0.20945 0.2777,-0.45081 0.3446,-0.70565 0.0669,-0.25484 0.0827,-0.52297 0.0463,-0.78391 -0.0364,-0.26095 -0.125,-0.51451 -0.259,-0.74134 l -1.64,-2.84 c -0.1789,-0.32006 -0.4476,-0.58925 -0.7674,-0.76863 -0.3198,-0.17937 -0.6896,-0.26839 -1.056,-0.25418 z"
       marker="none"
       visibility="visible"
       display="inline"
       overflow="visible"
       id="path8" />
    <path
       inkscape:connector-curvature="0"
       style="color:#000000;text-indent:0;text-transform:none;direction:ltr;baseline-shift:baseline;display:inline;overflow:visible;visibility:visible;fill:#000000;fill-opacity:1;fill-rule:evenodd;stroke:none;enable-background:accumulate"
       d="m 35.446447,966.55372 c -0.4446,-0.0168 -0.8936,0.12015 -1.2532,0.38218 -0.3596,0.26202 -0.6275,0.64745 -0.7478,1.07582 -0.0601,0.21419 -0.0841,0.43846 -0.0708,0.66052 0.0133,0.22207 0.0641,0.44184 0.1494,0.64729 0.1707,0.41089 0.4828,0.76148 0.8712,0.97857 l 2.84,1.64 c 0.2269,0.13624 0.4811,0.22682 0.743,0.26474 0.2619,0.0379 0.5313,0.0232 0.7875,-0.0431 0.2563,-0.0663 0.499,-0.18405 0.7097,-0.34425 0.2107,-0.16019 0.389,-0.36267 0.5214,-0.59185 0.1323,-0.22919 0.2185,-0.48488 0.252,-0.74741 0.0334,-0.26253 0.0141,-0.53168 -0.0566,-0.78672 -0.0706,-0.25505 -0.1926,-0.49578 -0.3563,-0.70367 -0.1638,-0.20789 -0.3693,-0.38277 -0.6007,-0.51117 l -2.84,-1.64001 c -0.2863,-0.17074 -0.6158,-0.2683 -0.9488,-0.28093 z"
       marker="none"
       visibility="visible"
       display="inline"
       overflow="visible"
       id="path10" />
    <path
       inkscape:connector-curvature="0"
       style="color:#000000;text-indent:0;text-transform:none;direction:ltr;baseline-shift:baseline;display:inline;overflow:visible;visibility:visible;fill:#000000;fill-opacity:1;fill-rule:evenodd;stroke:none;enable-background:accumulate"
       d="m 50.005247,969.20654 c -5.8921,0 -10.9199,3.95272 -12.185,9.34 h -15.985 c -0.3327,0 -0.665,0.0847 -0.9571,0.24388 -0.2921,0.1592 -0.5434,0.39258 -0.7237,0.67215 -0.1803,0.27957 -0.2892,0.60474 -0.3138,0.9365 -0.0245,0.33176 0.0355,0.66942 0.1727,0.97247 l 5.72,12.63 c 0.1576,0.3478 0.4171,0.64867 0.738,0.85558 0.3209,0.20691 0.7021,0.31913 1.0839,0.3191 h 16.15 v 38.61028 h -16.98 c -0.2618,0 -0.5235,0.052 -0.7654,0.1523 -0.2419,0.1002 -0.4637,0.2484 -0.6488,0.4335 -0.1851,0.1851 -0.3334,0.407 -0.4336,0.6489 -0.1002,0.2418 -0.1522,0.5035 -0.1522,0.7653 v 8.59 c 0,0.2618 0.0521,0.5235 0.1523,0.7653 0.1002,0.2418 0.2485,0.4636 0.4336,0.6487 0.1851,0.1851 0.4069,0.3333 0.6488,0.4335 0.2418,0.1002 0.5035,0.1522 0.7653,0.1522 h 46.55 c 0.2617,-10e-5 0.5234,-0.052 0.7652,-0.1523 0.2418,-0.1002 0.4636,-0.2484 0.6486,-0.4335 0.1851,-0.1851 0.3333,-0.4069 0.4335,-0.6487 0.1002,-0.2418 0.1522,-0.5034 0.1523,-0.7652 v -8.59 c 0,-0.2617 -0.0521,-0.5234 -0.1522,-0.7652 -0.1002,-0.2419 -0.2484,-0.4637 -0.4335,-0.6488 -0.185,-0.1852 -0.4068,-0.3334 -0.6487,-0.4336 -0.2418,-0.1002 -0.5034,-0.1523 -0.7652,-0.1524 h -16.9804 v -38.61028 h 16.1504 c 0.3817,-10e-5 0.7628,-0.1123 1.0837,-0.31921 0.3208,-0.2069 0.5802,-0.50773 0.7378,-0.85547 l 5.72,-12.63 c 0.1372,-0.30302 0.1971,-0.64064 0.1726,-0.97237 -0.0245,-0.33173 -0.1334,-0.65688 -0.3136,-0.93643 -0.1803,-0.27956 -0.4315,-0.51295 -0.7236,-0.67218 -0.292,-0.15922 -0.6243,-0.24395 -0.9569,-0.24402 h -15.9854 c -1.2648,-5.38728 -6.2902,-9.34 -12.1746,-9.34 z m 0,3.99968 c 3.7476,0 6.8558,2.25349 8.005,5.34032 -5.3401,0 -10.6803,0 -16.0204,0 1.149,-3.08683 4.2577,-5.34032 8.0154,-5.34032 z m -25.0691,9.34 c 16.7093,0 33.4185,0 50.1278,0 l -3.9087,8.63032 c -14.1035,0 -28.2069,0 -42.3104,0 z m 22.7687,12.63 c 1.5301,0 3.0603,0 4.5904,0 v 40.61028 c 0,0.2618 0.0521,0.5235 0.1523,0.7653 0.1002,0.2418 0.2485,0.4636 0.4336,0.6487 0.1851,0.1851 0.4069,0.3333 0.6488,0.4335 0.2418,0.1002 0.5035,0.1522 0.7653,0.1522 h 16.98 v 4.5903 h -42.5504 v -4.5903 h 16.9804 c 0.2617,-10e-5 0.5234,-0.052 0.7652,-0.1523 0.2418,-0.1002 0.4636,-0.2484 0.6486,-0.4335 0.1851,-0.1851 0.3333,-0.4069 0.4335,-0.6487 0.1002,-0.2418 0.1522,-0.5034 0.1523,-0.7652 z"
       marker="none"
       visibility="visible"
       display="inline"
       overflow="visible"
       id="path12" />
  </g>
  <g
     transform="matrix(0.34867844,0,0,0.34867844,392.56608,-334.39512)"
     id="switch.den_light"
     inkscape:label="switch.den_light">
    <path
       inkscape:connector-curvature="0"
       style="color:#000000;text-indent:0;text-transform:none;direction:ltr;baseline-shift:baseline;display:inline;overflow:visible;visibility:visible;fill:#000000;fill-opacity:1;fill-rule:evenodd;stroke:none;enable-background:accumulate"
       d="m 49.305247,958.34841 c -0.2616,0.004 -0.5224,0.0599 -0.7626,0.16357 -0.2402,0.1037 -0.4597,0.25511 -0.642,0.44281 -0.1823,0.1877 -0.3273,0.41155 -0.4239,0.6547 -0.0966,0.24316 -0.1449,0.50542 -0.1412,0.76705 v 3.28 c -0.005,0.26489 0.0433,0.53068 0.1412,0.77686 0.098,0.24618 0.2454,0.47255 0.431,0.66165 0.1855,0.1891 0.4091,0.34076 0.6534,0.4433 0.2443,0.10254 0.5091,0.15587 0.774,0.15587 0.265,0 0.5298,-0.0533 0.7741,-0.15587 0.2443,-0.10254 0.4678,-0.2542 0.6534,-0.4433 0.1856,-0.1891 0.333,-0.41547 0.4309,-0.66165 0.0979,-0.24618 0.1463,-0.51197 0.1413,-0.77686 v -3.28 c 0.0038,-0.26662 -0.0465,-0.53389 -0.1468,-0.78094 -0.1004,-0.24705 -0.2507,-0.47366 -0.4393,-0.66214 -0.1886,-0.18848 -0.4154,-0.33866 -0.6625,-0.43882 -0.2471,-0.10016 -0.5144,-0.1502 -0.781,-0.14623 z"
       marker="none"
       visibility="visible"
       display="inline"
       overflow="visible"
       id="path2-1-3" />
    <path
       inkscape:connector-curvature="0"
       style="color:#000000;text-indent:0;text-transform:none;direction:ltr;baseline-shift:baseline;display:inline;overflow:visible;visibility:visible;fill:#000000;fill-opacity:1;fill-rule:evenodd;stroke:none;enable-background:accumulate"
       d="m 57.466447,960.45185 c -0.3566,-0.003 -0.7136,0.0915 -1.0219,0.27062 -0.3084,0.17915 -0.5673,0.44244 -0.7412,0.75375 l -1.64,2.84 c -0.1341,0.22683 -0.2227,0.48039 -0.259,0.74134 -0.0364,0.26094 -0.0206,0.52907 0.0463,0.78391 0.0669,0.25484 0.1848,0.49619 0.3446,0.70564 0.1598,0.20944 0.3615,0.38682 0.5897,0.51858 0.2282,0.13176 0.4826,0.21781 0.7439,0.25158 0.2613,0.0338 0.5292,0.0152 0.7834,-0.0542 0.2542,-0.0694 0.4943,-0.18971 0.7021,-0.35165 0.2079,-0.16193 0.3832,-0.3654 0.5127,-0.59487 l 1.64,-2.84 c 0.1793,-0.3006 0.2778,-0.64897 0.2823,-0.99899 0.0045,-0.35002 -0.0849,-0.70081 -0.2565,-1.00594 -0.1715,-0.30513 -0.4248,-0.56383 -0.7262,-0.74185 -0.3014,-0.17803 -0.6502,-0.27494 -1.0002,-0.2779 z"
       marker="none"
       visibility="visible"
       display="inline"
       overflow="visible"
       id="path4-4-4" />
    <path
       inkscape:connector-curvature="0"
       style="color:#000000;text-indent:0;text-transform:none;direction:ltr;baseline-shift:baseline;display:inline;overflow:visible;visibility:visible;fill:#000000;fill-opacity:1;fill-rule:evenodd;stroke:none;enable-background:accumulate"
       d="m 63.483647,966.33341 c -0.3797,-0.0122 -0.7622,0.0867 -1.0884,0.28125 l -2.84,1.64 c -0.2314,0.12841 -0.4369,0.30328 -0.6007,0.51118 -0.1638,0.20789 -0.2857,0.44862 -0.3563,0.70366 -0.0707,0.25505 -0.0901,0.52419 -0.0566,0.78672 0.0334,0.26253 0.1196,0.51823 0.252,0.74741 0.1323,0.22918 0.3107,0.43167 0.5214,0.59186 0.2106,0.16019 0.4534,0.27796 0.7096,0.34425 0.2562,0.0663 0.5257,0.081 0.7876,0.0431 0.2619,-0.0379 0.5161,-0.1285 0.743,-0.26475 l 2.84,-1.64 c 0.3782,-0.21142 0.6842,-0.54928 0.8574,-0.94645 0.1731,-0.39717 0.2124,-0.85135 0.1099,-1.27233 -0.1025,-0.42098 -0.3461,-0.80631 -0.6824,-1.07945 -0.3364,-0.27314 -0.7635,-0.43251 -1.1965,-0.44646 z"
       marker="none"
       visibility="visible"
       display="inline"
       overflow="visible"
       id="path6-2-9" />
    <path
       inkscape:connector-curvature="0"
       style="color:#000000;text-indent:0;text-transform:none;direction:ltr;baseline-shift:baseline;display:inline;overflow:visible;visibility:visible;fill:#000000;fill-opacity:1;fill-rule:evenodd;stroke:none;enable-background:accumulate"
       d="m 41.173647,960.58341 c -0.3448,0.0133 -0.6856,0.1178 -0.9786,0.29993 -0.293,0.18214 -0.5375,0.44152 -0.702,0.74476 -0.1645,0.30324 -0.2487,0.64962 -0.2417,0.99455 0.007,0.34493 0.1052,0.6876 0.282,0.98389 l 1.64,2.83999 c 0.1295,0.22947 0.3048,0.43294 0.5126,0.59488 0.2079,0.16193 0.448,0.28221 0.7022,0.35165 0.2541,0.0694 0.5221,0.088 0.7834,0.0542 0.2613,-0.0338 0.5157,-0.11982 0.7439,-0.25158 0.2281,-0.13176 0.4298,-0.30914 0.5897,-0.51858 0.1598,-0.20945 0.2777,-0.45081 0.3446,-0.70565 0.0669,-0.25484 0.0827,-0.52297 0.0463,-0.78391 -0.0364,-0.26095 -0.125,-0.51451 -0.259,-0.74134 l -1.64,-2.84 c -0.1789,-0.32006 -0.4476,-0.58925 -0.7674,-0.76863 -0.3198,-0.17937 -0.6896,-0.26839 -1.056,-0.25418 z"
       marker="none"
       visibility="visible"
       display="inline"
       overflow="visible"
       id="path8-6" />
    <path
       inkscape:connector-curvature="0"
       style="color:#000000;text-indent:0;text-transform:none;direction:ltr;baseline-shift:baseline;display:inline;overflow:visible;visibility:visible;fill:#000000;fill-opacity:1;fill-rule:evenodd;stroke:none;enable-background:accumulate"
       d="m 35.446447,966.55372 c -0.4446,-0.0168 -0.8936,0.12015 -1.2532,0.38218 -0.3596,0.26202 -0.6275,0.64745 -0.7478,1.07582 -0.0601,0.21419 -0.0841,0.43846 -0.0708,0.66052 0.0133,0.22207 0.0641,0.44184 0.1494,0.64729 0.1707,0.41089 0.4828,0.76148 0.8712,0.97857 l 2.84,1.64 c 0.2269,0.13624 0.4811,0.22682 0.743,0.26474 0.2619,0.0379 0.5313,0.0232 0.7875,-0.0431 0.2563,-0.0663 0.499,-0.18405 0.7097,-0.34425 0.2107,-0.16019 0.389,-0.36267 0.5214,-0.59185 0.1323,-0.22919 0.2185,-0.48488 0.252,-0.74741 0.0334,-0.26253 0.0141,-0.53168 -0.0566,-0.78672 -0.0706,-0.25505 -0.1926,-0.49578 -0.3563,-0.70367 -0.1638,-0.20789 -0.3693,-0.38277 -0.6007,-0.51117 l -2.84,-1.64001 c -0.2863,-0.17074 -0.6158,-0.2683 -0.9488,-0.28093 z"
       marker="none"
       visibility="visible"
       display="inline"
       overflow="visible"
       id="path10-0" />
    <path
       inkscape:connector-curvature="0"
       style="color:#000000;text-indent:0;text-transform:none;direction:ltr;baseline-shift:baseline;display:inline;overflow:visible;visibility:visible;fill:#000000;fill-opacity:1;fill-rule:evenodd;stroke:none;enable-background:accumulate"
       d="m 50.005247,969.20654 c -5.8921,0 -10.9199,3.95272 -12.185,9.34 h -15.985 c -0.3327,0 -0.665,0.0847 -0.9571,0.24388 -0.2921,0.1592 -0.5434,0.39258 -0.7237,0.67215 -0.1803,0.27957 -0.2892,0.60474 -0.3138,0.9365 -0.0245,0.33176 0.0355,0.66942 0.1727,0.97247 l 5.72,12.63 c 0.1576,0.3478 0.4171,0.64867 0.738,0.85558 0.3209,0.20691 0.7021,0.31913 1.0839,0.3191 h 16.15 v 38.61028 h -16.98 c -0.2618,0 -0.5235,0.052 -0.7654,0.1523 -0.2419,0.1002 -0.4637,0.2484 -0.6488,0.4335 -0.1851,0.1851 -0.3334,0.407 -0.4336,0.6489 -0.1002,0.2418 -0.1522,0.5035 -0.1522,0.7653 v 8.59 c 0,0.2618 0.0521,0.5235 0.1523,0.7653 0.1002,0.2418 0.2485,0.4636 0.4336,0.6487 0.1851,0.1851 0.4069,0.3333 0.6488,0.4335 0.2418,0.1002 0.5035,0.1522 0.7653,0.1522 h 46.55 c 0.2617,-10e-5 0.5234,-0.052 0.7652,-0.1523 0.2418,-0.1002 0.4636,-0.2484 0.6486,-0.4335 0.1851,-0.1851 0.3333,-0.4069 0.4335,-0.6487 0.1002,-0.2418 0.1522,-0.5034 0.1523,-0.7652 v -8.59 c 0,-0.2617 -0.0521,-0.5234 -0.1522,-0.7652 -0.1002,-0.2419 -0.2484,-0.4637 -0.4335,-0.6488 -0.185,-0.1852 -0.4068,-0.3334 -0.6487,-0.4336 -0.2418,-0.1002 -0.5034,-0.1523 -0.7652,-0.1524 h -16.9804 v -38.61028 h 16.1504 c 0.3817,-10e-5 0.7628,-0.1123 1.0837,-0.31921 0.3208,-0.2069 0.5802,-0.50773 0.7378,-0.85547 l 5.72,-12.63 c 0.1372,-0.30302 0.1971,-0.64064 0.1726,-0.97237 -0.0245,-0.33173 -0.1334,-0.65688 -0.3136,-0.93643 -0.1803,-0.27956 -0.4315,-0.51295 -0.7236,-0.67218 -0.292,-0.15922 -0.6243,-0.24395 -0.9569,-0.24402 h -15.9854 c -1.2648,-5.38728 -6.2902,-9.34 -12.1746,-9.34 z m 0,3.99968 c 3.7476,0 6.8558,2.25349 8.005,5.34032 -5.3401,0 -10.6803,0 -16.0204,0 1.149,-3.08683 4.2577,-5.34032 8.0154,-5.34032 z m -25.0691,9.34 c 16.7093,0 33.4185,0 50.1278,0 l -3.9087,8.63032 c -14.1035,0 -28.2069,0 -42.3104,0 z m 22.7687,12.63 c 1.5301,0 3.0603,0 4.5904,0 v 40.61028 c 0,0.2618 0.0521,0.5235 0.1523,0.7653 0.1002,0.2418 0.2485,0.4636 0.4336,0.6487 0.1851,0.1851 0.4069,0.3333 0.6488,0.4335 0.2418,0.1002 0.5035,0.1522 0.7653,0.1522 h 16.98 v 4.5903 h -42.5504 v -4.5903 h 16.9804 c 0.2617,-10e-5 0.5234,-0.052 0.7652,-0.1523 0.2418,-0.1002 0.4636,-0.2484 0.6486,-0.4335 0.1851,-0.1851 0.3333,-0.4069 0.4335,-0.6487 0.1002,-0.2418 0.1522,-0.5034 0.1523,-0.7652 z"
       marker="none"
       visibility="visible"
       display="inline"
       overflow="visible"
       id="path12-2" />
  </g>
  <path
     inkscape:connector-curvature="0"
     d="m 446.88918,32.720066 -1.89855,-5.360491 1.75168,-4.945277 -1.82534,-12.571025 h -4.21734 l -1.82786,12.571025 1.75396,4.945507 -1.90106,5.360261 z m -4.71742,-13.227592 c -0.0913,-1.222764 -1.31451,-2.139665 -1.46709,-3.332003 -0.15259,-1.191881 0.64375,-2.008584 2.10214,-2.17078 0.82013,-0.09105 1.93331,0.18416 2.08567,1.376497 0.15306,1.19211 -1.6199,2.384447 -1.46708,3.54293 C 443.55488,19.892134 444.40818,21.011037 445,22 h -3.6573 c 0.27016,-0.587018 0.90294,-1.527026 0.82906,-2.507526 z m 0.49939,-8.896096 c 0.56438,0.385016 0.87503,0.911182 0.73527,1.373979 -0.19834,0.657708 -1.22162,0.931315 -2.28563,0.610125 -0.0192,-0.0057 -0.0359,-0.01464 -0.0549,-0.02082 l 0.28551,-1.963286 z m -2.88042,12.156498 h 6.03284 l -1.49842,4.230378 h -3.03369 z m 1.50073,4.98348 h 3.03345 l 1.49843,4.230835 h -6.03261 z"
     id="switch.neons"
     style="fill:#ff320d;fill-opacity:1;stroke-width:0.22876792"
     inkscape:label="switch.neons" />
  <rect
     style="fill:#0dfff5;fill-opacity:1;stroke:#000000;stroke-width:1;stroke-miterlimit:4;stroke-dasharray:none;stroke-dashoffset:0;stroke-opacity:1"
     id="switch.fishes"
     width="30"
     height="15"
     x="370"
     y="44.5"
     inkscape:label="switch.fishes" />
  <g
     transform="matrix(0.22876793,0,0,0.22876793,373.56168,40.561559)"
     id="switch.fishes2"
     inkscape:label="switch.fishes2">
    <path
       style="clip-rule:evenodd;fill-rule:evenodd"
       inkscape:connector-curvature="0"
       d="M 26.363,62.802 C 21.457,67.014 16.735,71.161 11.896,75.168 10.271,76.514 8.419,77.635 6.543,78.614 4.751,79.551 3.487,78.926 4.001,76.76 5.107,72.093 6.081,67.351 7.718,62.863 12.032,51.043 12.09,55.047 7.736,43.205 6.335,39.396 5.281,35.446 4.302,31.503 3.974,30.185 4.368,28.686 4.433,27.27 c 1.443,0.446 3.061,0.619 4.294,1.398 2.34,1.478 4.541,3.206 6.65,5.005 3.589,3.058 7.061,6.252 10.317,9.153 4.811,-3.276 9.564,-6.449 14.216,-9.766 0.52,-0.371 0.719,-1.588 0.618,-2.354 -0.249,-1.922 -0.805,-3.802 -1.146,-5.715 -0.498,-2.776 0.308,-3.854 3.057,-3.98 8.575,-0.393 16.5,1.692 23.789,6.263 1.466,0.92 3.073,1.683 4.707,2.258 10.373,3.65 18.341,10.193 24.055,19.577 1.523,2.503 1.467,4.799 0.021,7.286 C 87.418,69.455 69.25,82.942 47.116,75.356 36.989,71.886 35.586,71.04 26.363,62.802 Z M 74.56,52.928 c 3.918,-0.041 7.076,-3.251 7.021,-7.135 -0.057,-3.891 -3.286,-7.023 -7.192,-6.976 -3.902,0.048 -7.051,3.261 -7.006,7.149 0.043,3.891 3.252,7.004 7.177,6.962 z"
       id="path2-8" />
  </g>
  <path
     style="fill:none;stroke:#000000;stroke-width:1px;stroke-linecap:butt;stroke-linejoin:miter;stroke-opacity:1"
     d="m 395,62 v 5"
     id="path4694"
     inkscape:connector-curvature="0" />
  <path
     style="fill:none;stroke:#000000;stroke-width:1px;stroke-linecap:butt;stroke-linejoin:miter;stroke-opacity:1"
     d="M 395,77 V 87 H 365"
     id="path4696"
     inkscape:connector-curvature="0" />
  <path
     style="fill:none;stroke:#000000;stroke-width:1px;stroke-linecap:butt;stroke-linejoin:miter;stroke-opacity:1"
     d="m 390,102 v 10"
     id="path4700"
     inkscape:connector-curvature="0" />
  <path
     style="fill:none;stroke:#3122ff;stroke-width:1px;stroke-linecap:butt;stroke-linejoin:miter;stroke-opacity:1"
     d="m 390,87 v 15"
     id="path4702"
     inkscape:connector-curvature="0" />
  <path
     style="fill:none;stroke:#3122ff;stroke-width:1;stroke-linecap:butt;stroke-linejoin:miter;stroke-miterlimit:4;stroke-dasharray:1, 1;stroke-dashoffset:0;stroke-opacity:1"
     d="m 375,87 c 0,0 0,15 15,15"
     id="path4704"
     inkscape:connector-curvature="0" />
  <path
     style="fill:none;stroke:#000000;stroke-width:1px;stroke-linecap:butt;stroke-linejoin:miter;stroke-opacity:1"
     d="m 390,102 h 5"
     id="path4712"
     inkscape:connector-curvature="0" />
  <path
     style="fill:none;stroke:#000000;stroke-width:1px;stroke-linecap:butt;stroke-linejoin:miter;stroke-opacity:1"
     d="m 410,102 h 10 v 10"
     id="path4714"
     inkscape:connector-curvature="0" />
  <path
     style="fill:none;stroke:#3122ff;stroke-width:1px;stroke-linecap:butt;stroke-linejoin:miter;stroke-opacity:1"
     d="m 395,102 h 15"
     id="path4716"
     inkscape:connector-curvature="0" />
  <path
     style="fill:none;stroke:#3122ff;stroke-width:1;stroke-linecap:butt;stroke-linejoin:miter;stroke-miterlimit:4;stroke-dasharray:1, 1;stroke-dashoffset:0;stroke-opacity:1"
     d="m 410,102 -2,10 -3,-10"
     id="path4718"
     inkscape:connector-curvature="0" />
  <path
     style="fill:#fbf048;fill-opacity:0.64640886;stroke:none;stroke-width:0.89999998px;stroke-linecap:butt;stroke-linejoin:miter;stroke-opacity:1"
     d="M 186.5,96 V 64.5 H 137 V 87 h -4.5 v 13.5 h 27 v 9 H 173 c 0,0 0,-13.5 13.5,-13.5 z"
     id="switch.laundry_light-5"
     inkscape:connector-curvature="0"
     inkscape:label="switch.laundry_light" />
  <path
     style="fill:#fffc8c;fill-opacity:1;stroke:none;stroke-width:0.89999998px;stroke-linecap:butt;stroke-linejoin:miter;stroke-opacity:1"
     d="m 105.5,6 h 81 v 31.5 c 0,0 -79.94533,16.783686 -81,-31.5 z"
     id="switch.den_light2-4"
     inkscape:connector-curvature="0"
     inkscape:label="switch.den_light2" />
  <path
     style="fill:#fffdb0;fill-opacity:1;stroke:none;stroke-width:0.89999998px;stroke-linecap:butt;stroke-linejoin:miter;stroke-opacity:1"
     d="M 65,6 H 20 v 45 h 45 c 0,0 23.527449,-24.73686 0,-45 z"
     id="switch.dining_room_light-7"
     inkscape:connector-curvature="0"
     inkscape:label="switch.dining_room_light" />
  <path
     style="fill:#ffcd1d;fill-opacity:1;stroke:none;stroke-width:0.89999998px;stroke-linecap:butt;stroke-linejoin:miter;stroke-opacity:1"
     d="M 150.5,64.5 H 173 v -18 c 0,0 -31.5,-22.5 -22.5,18 z"
     id="switch.fireplace_light-9"
     inkscape:connector-curvature="0"
     inkscape:label="switch.fireplace_light" />
  <path
     style="fill:#fffd65;fill-opacity:1;stroke:#000000;stroke-width:0.89999998px;stroke-linecap:butt;stroke-linejoin:miter;stroke-opacity:0"
     d="m 20,51 v 58.5 h 90 v -18 H 96.5 V 78 H 92 V 51 Z"
     id="switch.living_room_light-1"
     inkscape:connector-curvature="0"
     inkscape:label="switch.living_room_light" />
  <path
     style="fill:none;stroke:#000000;stroke-width:1.79999995;stroke-linecap:butt;stroke-linejoin:miter;stroke-miterlimit:4;stroke-dasharray:none;stroke-opacity:1"
     d="M 20,109.5 V 6 H 186.5 V 168 H 110 v -58.5 z"
     id="path8487-4"
     inkscape:connector-curvature="0" />
  <path
     style="fill:none;stroke:#000000;stroke-width:0.89999998px;stroke-linecap:butt;stroke-linejoin:miter;stroke-opacity:1"
     d="m 110,109.5 v -18 H 96.5 110 V 78 H 96.5"
     id="path50-5"
     inkscape:connector-curvature="0" />
  <path
     style="fill:none;stroke:#3122ff;stroke-width:0.87142122px;stroke-linecap:butt;stroke-linejoin:miter;stroke-opacity:1"
     d="M 96.5,91.5 V 78"
     id="path8483-1"
     inkscape:connector-curvature="0" />
  <path
     style="fill:none;fill-opacity:1;stroke:#0afdf3;stroke-width:0.89999998px;stroke-linecap:butt;stroke-linejoin:miter;stroke-opacity:1"
     d="M 33.5,109.5 H 74"
     id="path4830-6"
     inkscape:connector-curvature="0" />
  <path
     style="fill:none;stroke:#3122ff;stroke-width:0.89999998px;stroke-linecap:butt;stroke-linejoin:miter;stroke-opacity:1"
     d="m 92,109.5 c 13.5,0 13.5,0 13.5,0 v 0"
     id="path4832-0"
     inkscape:connector-curvature="0" />
  <path
     style="fill:none;stroke:#3122ff;stroke-width:0.89999998px;stroke-linecap:butt;stroke-linejoin:miter;stroke-opacity:1"
     d="m 110,114 c 0,9 0,9 0,9"
     id="path4834-2"
     inkscape:connector-curvature="0" />
  <path
     style="fill:none;stroke:#dfcfb3;stroke-width:0.89999998px;stroke-linecap:butt;stroke-linejoin:miter;stroke-opacity:1"
     d="m 110,127.5 c 0,36 0,36 0,36"
     id="path4836-3"
     inkscape:connector-curvature="0" />
  <path
     style="fill:none;stroke:#000000;stroke-width:0.89999998px;stroke-linecap:butt;stroke-linejoin:miter;stroke-opacity:1"
     d="m 110,109.5 h 76.5"
     id="path4838-0"
     inkscape:connector-curvature="0" />
  <path
     style="fill:none;stroke:#000000;stroke-width:0.89999998px;stroke-linecap:butt;stroke-linejoin:miter;stroke-opacity:1"
     d="M 155,109.5 V 123 h 31.5"
     id="path4840-3"
     inkscape:connector-curvature="0" />
  <path
     style="fill:none;stroke:#000000;stroke-width:0.89999998px;stroke-linecap:butt;stroke-linejoin:miter;stroke-opacity:1"
     d="M 159.5,109.5 V 123"
     id="path4842-6"
     inkscape:connector-curvature="0" />
  <path
     style="fill:none;stroke:#000000;stroke-width:0.89999998px;stroke-linecap:butt;stroke-linejoin:miter;stroke-opacity:1"
     d="M 164,109.5 V 123"
     id="path4844-0"
     inkscape:connector-curvature="0" />
  <path
     style="fill:none;stroke:#000000;stroke-width:0.89999998px;stroke-linecap:butt;stroke-linejoin:miter;stroke-opacity:1"
     d="M 168.5,109.5 V 123"
     id="path4846-3"
     inkscape:connector-curvature="0" />
  <path
     style="fill:none;stroke:#000000;stroke-width:0.89999998px;stroke-linecap:butt;stroke-linejoin:miter;stroke-opacity:1"
     d="M 173,109.5 V 123"
     id="path4848-6"
     inkscape:connector-curvature="0" />
  <path
     style="fill:none;stroke:#3122ff;stroke-width:0.89999998px;stroke-linecap:butt;stroke-linejoin:miter;stroke-opacity:1"
     d="m 173,109.5 h 13.5"
     id="path4850-8"
     inkscape:connector-curvature="0" />
  <path
     style="fill:#bababa;fill-opacity:0.64640886;stroke:none;stroke-width:0.34346291;stroke-opacity:1"
     d="m 110.77698,138.62969 v -28.67916 h 21.8099 21.80989 v 6.86926 6.86926 h 15.79929 15.79929 v 21.80989 21.8099 h -37.60918 -37.60919 z"
     id="path4852-4"
     inkscape:connector-curvature="0" />
  <g
     id="camera.front_porch-1"
     transform="matrix(-0.55396921,0.55396922,-0.71797814,-0.71797814,1115.5933,130.15008)"
     inkscape:label="camera.front_porch"
     style="fill:#cd0000;fill-opacity:1">
    <path
       id="path4918-2-7-1-2-1-0"
       d="m 895.65469,714.11415 h -0.32455 c -0.0861,0 -0.1682,0.009 -0.249,0.0211 v -0.67968 c 0,-0.39354 -0.39028,-0.71221 -0.87253,-0.71221 h -6.26201 c -0.48161,0 -0.87317,0.31866 -0.87317,0.71221 v 3.03968 c 0,0.39388 0.39156,0.71352 0.87317,0.71352 h 6.26201 c 0.48225,0 0.87253,-0.31964 0.87253,-0.71352 v -0.98093 c 0.0808,0.0128 0.16292,0.0211 0.249,0.0211 h 0.35543 l 1.70036,1.07618 v -3.79464 z"
       inkscape:connector-curvature="0"
       style="fill:#cd0000;fill-opacity:1;stroke-width:0.009375" />
  </g>
  <g
     id="camera.den_video-6"
     transform="matrix(-0.55396921,0.55396922,-0.71797814,-0.71797814,1189.5362,29.450022)"
     inkscape:label="camera.den_video"
     style="fill:#cd0000;fill-opacity:1">
    <path
       id="path4918-2-7-1-2-6-2"
       d="m 895.65469,714.11415 h -0.32455 c -0.0861,0 -0.1682,0.009 -0.249,0.0211 v -0.67968 c 0,-0.39354 -0.39028,-0.71221 -0.87253,-0.71221 h -6.26201 c -0.48161,0 -0.87317,0.31866 -0.87317,0.71221 v 3.03968 c 0,0.39388 0.39156,0.71352 0.87317,0.71352 h 6.26201 c 0.48225,0 0.87253,-0.31964 0.87253,-0.71352 v -0.98093 c 0.0808,0.0128 0.16292,0.0211 0.249,0.0211 h 0.35543 l 1.70036,1.07618 v -3.79464 z"
       inkscape:connector-curvature="0"
       style="fill:#cd0000;fill-opacity:1;stroke-width:0.009375" />
  </g>
  <path
     style="fill:none;stroke:#0afdf3;stroke-width:0.89999998px;stroke-linecap:butt;stroke-linejoin:miter;stroke-opacity:1"
     d="m 119,168 h 9"
     id="path4888-6"
     inkscape:connector-curvature="0" />
  <path
     style="fill:none;stroke:#0afdf3;stroke-width:0.89999998px;stroke-linecap:butt;stroke-linejoin:miter;stroke-opacity:1"
     d="m 164,168 h 9"
     id="path4890-9"
     inkscape:connector-curvature="0" />
  <path
     style="fill:none;stroke:#3122ff;stroke-width:0.89999998;stroke-linecap:butt;stroke-linejoin:miter;stroke-miterlimit:4;stroke-dasharray:0.9, 0.9;stroke-dashoffset:0;stroke-opacity:1"
     d="m 110,114 h 9 c 0,0 0,9 -9,9"
     id="path8250-2"
     inkscape:connector-curvature="0" />
  <path
     style="fill:none;stroke:#3122ff;stroke-width:0.89999998;stroke-linecap:butt;stroke-linejoin:miter;stroke-miterlimit:4;stroke-dasharray:0.9, 0.9;stroke-dashoffset:0;stroke-opacity:1"
     d="M 105.5,109.5 V 96 c 0,0 -13.5,0 -13.5,13.5"
     id="path8252-6"
     inkscape:connector-curvature="0" />
  <path
     style="fill:none;stroke:#3122ff;stroke-width:0.89999998;stroke-linecap:butt;stroke-linejoin:miter;stroke-miterlimit:4;stroke-dasharray:0.9, 0.9;stroke-dashoffset:0;stroke-opacity:1"
     d="M 186.5,109.5 V 96 c 0,0 -13.5,0 -13.5,13.5"
     id="path8254-1"
     inkscape:connector-curvature="0" />
  <g
     id="cover.garage-3"
     transform="matrix(0.9,0,0,0.9,80.3,26.7)"
     style="fill:#ededed;fill-opacity:1;stroke:#8c8c8c;stroke-opacity:1"
     inkscape:label="cover.garage">
    <path
       inkscape:connector-curvature="0"
       id="path8268-7"
       d="m 35,112 h 40 v 40 H 35 c 0,0 0,-40 0,-40 z"
       style="fill:#ededed;fill-opacity:1;stroke:#8c8c8c;stroke-width:1px;stroke-linecap:butt;stroke-linejoin:miter;stroke-opacity:1" />
    <path
       inkscape:connector-curvature="0"
       id="path8270-3"
       d="m 45,112 v 40 h 10 v -40 h 10 v 40"
       style="fill:#ededed;fill-opacity:1;stroke:#8c8c8c;stroke-width:1px;stroke-linecap:butt;stroke-linejoin:miter;stroke-opacity:1" />
  </g>
  <g
     id="camera.garage_video-3"
     transform="matrix(-0.55396921,-0.55396922,0.71797814,-0.71797814,163.77643,1171.9262)"
     inkscape:label="camera.garage_video"
     style="fill:#cd0000;fill-opacity:1">
    <path
       id="path4918-2-7-1-2-6-4-5"
       d="m 895.65469,714.11415 h -0.32455 c -0.0861,0 -0.1682,0.009 -0.249,0.0211 v -0.67968 c 0,-0.39354 -0.39028,-0.71221 -0.87253,-0.71221 h -6.26201 c -0.48161,0 -0.87317,0.31866 -0.87317,0.71221 v 3.03968 c 0,0.39388 0.39156,0.71352 0.87317,0.71352 h 6.26201 c 0.48225,0 0.87253,-0.31964 0.87253,-0.71352 v -0.98093 c 0.0808,0.0128 0.16292,0.0211 0.249,0.0211 h 0.35543 l 1.70036,1.07618 v -3.79464 z"
       inkscape:connector-curvature="0"
       style="fill:#cd0000;fill-opacity:1;stroke-width:0.009375" />
  </g>
  <path
     style="fill:none;stroke:#000000;stroke-width:0.89999998px;stroke-linecap:butt;stroke-linejoin:miter;stroke-opacity:1"
     d="M 110,78 V 64.5 H 92 V 51"
     id="path8467-2"
     inkscape:connector-curvature="0" />
  <path
     style="fill:none;stroke:#000000;stroke-width:0.89999998px;stroke-linecap:butt;stroke-linejoin:miter;stroke-opacity:1"
     d="M 92,64.5 V 78 h 4.5 V 64.5 H 101 V 78 h 4.5 V 64.5"
     id="path8469-0"
     inkscape:connector-curvature="0" />
  <path
     style="fill:none;stroke:#000000;stroke-width:0.89999998px;stroke-linecap:butt;stroke-linejoin:miter;stroke-opacity:1"
     d="M 78.5,51 H 56"
     id="path8473-0"
     inkscape:connector-curvature="0" />
  <path
     style="fill:none;stroke:#000000;stroke-width:0.89999998px;stroke-linecap:butt;stroke-linejoin:miter;stroke-opacity:1"
     d="m 20,51 h 9"
     id="path8475-6"
     inkscape:connector-curvature="0" />
  <path
     style="fill:none;stroke:#000000;stroke-width:0.89999998px;stroke-linecap:butt;stroke-linejoin:miter;stroke-opacity:1"
     d="M 96.5,51 V 64.5 H 101 V 51 h 4.5 V 64.5 H 110 V 51 h -4.5"
     id="path8477-8"
     inkscape:connector-curvature="0" />
  <path
     style="fill:none;stroke:#000000;stroke-width:0.89999998px;stroke-linecap:butt;stroke-linejoin:miter;stroke-opacity:1"
     d="m 110,64.5 h 27"
     id="path8479-0"
     inkscape:connector-curvature="0" />
  <path
     style="fill:none;stroke:#000000;stroke-width:0.89999998px;stroke-linecap:butt;stroke-linejoin:miter;stroke-opacity:1"
     d="m 150.5,64.5 h 36"
     id="path8481-9"
     inkscape:connector-curvature="0" />
  <path
     style="fill:none;stroke:#3122ff;stroke-width:0.89999998;stroke-linecap:butt;stroke-linejoin:miter;stroke-miterlimit:4;stroke-dasharray:0.9, 0.9;stroke-dashoffset:0;stroke-opacity:1"
     d="m 96.5,91.5 9,-1.8 -9,-1.8"
     id="path8485-8"
     inkscape:connector-curvature="0" />
  <path
     style="fill:none;stroke:#000000;stroke-width:0.89999998px;stroke-linecap:butt;stroke-linejoin:miter;stroke-opacity:1"
     d="m 173,64.5 v -18 h 13.5"
     id="path52-1"
     inkscape:connector-curvature="0" />
  <path
     style="fill:none;stroke:#000000;stroke-width:0.89999998px;stroke-linecap:butt;stroke-linejoin:miter;stroke-opacity:1"
     d="m 94.174247,75.596892 13.843293,-8.74314 -5.10016,0.48573 2.42865,3.40011 1.94292,-3.88584"
     id="path54-6"
     inkscape:connector-curvature="0" />
  <path
     style="fill:none;stroke:#000000;stroke-width:0.89999998px;stroke-linecap:butt;stroke-linejoin:miter;stroke-opacity:1"
     d="m 93.71,52.420002 13.8433,8.743131 -5.10016,-0.48573 2.42865,-3.400101 1.94292,3.885831"
     id="path54-2-5"
     inkscape:connector-curvature="0" />
  <path
     style="fill:none;stroke:#000000;stroke-width:0.89999998px;stroke-linecap:butt;stroke-linejoin:miter;stroke-opacity:1"
     d="m 92,51 h 13.5 V 6"
     id="path71-0"
     inkscape:connector-curvature="0" />
  <g
     transform="matrix(0.27,0,0,0.27,146.81,134.33739)"
     id="binary_sensor.garage_control_online-9"
     inkscape:label="binary_sensor.garage_control_online">
    <path
       inkscape:connector-curvature="0"
       d="M 1,9 V 55 H 63 V 9 Z m 4,8 H 3 v -2 h 2 z m 0,2 v 2 H 3 v -2 z m 0,-8 v 2 H 3 V 11 Z M 5,49 H 3 V 47 H 5 Z M 5,45 H 3 v -2 h 2 z m -2,6 h 2 v 2 H 3 Z m 4,2 V 41 H 3 V 23 H 7 V 11 h 54 v 2 h -7 c -2.785,0 -5.189,1.639 -6.315,4 H 46 c -2.757,0 -5,2.243 -5,5 v 12 c 0,2.757 2.243,5 5,5 h 1 v 2.343 L 54.511,51 H 61 v 2 z M 61,36 h -7 v 8 h 7 v 5 H 55.489 L 49,40.657 V 20 c 0,-2.757 2.243,-5 5,-5 h 7 v 11 z m 0,2 v 4 H 56 V 38 Z M 47,20 v 1 h -2 v 2 h 2 v 10 h -2 v 2 h 2 v 2 h -1 c -1.654,0 -3,-1.346 -3,-3 V 22 c 0,-1.654 1.346,-3 3,-3 h 1.08 C 47.033,19.328 47,19.66 47,20 Z"
       id="path2-7" />
    <path
       inkscape:connector-curvature="0"
       d="m 31,21 h -2 v -4 h -2 v 4 h -2 v -4 h -2 v 4 h -2 v -4 h -2 v 4 h -2 v -4 h -2 v 4 h -2 v 4 H 9 v 2 h 4 v 2 H 9 v 2 h 4 v 2 H 9 v 2 h 4 v 2 H 9 v 2 h 4 v 4 h 2 v 4 h 2 v -4 h 2 v 4 h 2 v -4 h 2 v 4 h 2 v -4 h 2 v 4 h 2 v -4 h 2 v -4 h 4 v -2 h -4 v -2 h 4 v -2 h -4 v -2 h 4 v -2 h -4 v -2 h 4 V 25 H 31 Z M 29,41 H 15 V 23 h 14 z"
       id="path4-44" />
    <path
       inkscape:connector-curvature="0"
       d="M 27,25 H 17 V 39 H 27 Z M 25,37 H 19 V 27 h 6 z"
       id="path6-28" />
    <rect
       x="5"
       y="25"
       width="2"
       height="2"
       id="rect8-0" />
    <rect
       x="5"
       y="29"
       width="2"
       height="2"
       id="rect10-5" />
    <rect
       x="5"
       y="33"
       width="2"
       height="2"
       id="rect12-5" />
    <rect
       x="5"
       y="37"
       width="2"
       height="2"
       id="rect14-7" />
    <rect
       x="37"
       y="25"
       width="2"
       height="2"
       id="rect16-1" />
    <rect
       x="37"
       y="29"
       width="2"
       height="2"
       id="rect18-9" />
    <rect
       x="37"
       y="33"
       width="2"
       height="2"
       id="rect20-0" />
    <rect
       x="37"
       y="37"
       width="2"
       height="2"
       id="rect22-0" />
    <rect
       x="15"
       y="13"
       width="2"
       height="2"
       id="rect24-1" />
    <rect
       x="19"
       y="13"
       width="2"
       height="2"
       id="rect26-6" />
    <rect
       x="23"
       y="13"
       width="2"
       height="2"
       id="rect28-4" />
    <rect
       x="27"
       y="13"
       width="2"
       height="2"
       id="rect30-0" />
    <rect
       x="15"
       y="49"
       width="2"
       height="2"
       id="rect32-9" />
    <rect
       x="19"
       y="49"
       width="2"
       height="2"
       id="rect34-9" />
    <rect
       x="23"
       y="49"
       width="2"
       height="2"
       id="rect36-1" />
    <rect
       x="27"
       y="49"
       width="2"
       height="2"
       id="rect38-2" />
    <path
       inkscape:connector-curvature="0"
       d="m 56,21 c -2.757,0 -5,2.243 -5,5 0,2.757 2.243,5 5,5 2.757,0 5,-2.243 5,-5 0,-2.757 -2.243,-5 -5,-5 z m 0,8 c -1.654,0 -3,-1.346 -3,-3 0,-1.654 1.346,-3 3,-3 1.654,0 3,1.346 3,3 0,1.654 -1.346,3 -3,3 z"
       id="path40-8" />
  </g>
  <g
     id="camera.living-7"
     transform="matrix(0.55396921,-0.55396922,0.71797814,0.71797814,-983.03623,86.049978)"
     inkscape:label="camera.living"
     style="fill:#cd0000;fill-opacity:1">
    <path
       id="path4918-2-7-1-2-6-0-5"
       d="m 895.65469,714.11415 h -0.32455 c -0.0861,0 -0.1682,0.009 -0.249,0.0211 v -0.67968 c 0,-0.39354 -0.39028,-0.71221 -0.87253,-0.71221 h -6.26201 c -0.48161,0 -0.87317,0.31866 -0.87317,0.71221 v 3.03968 c 0,0.39388 0.39156,0.71352 0.87317,0.71352 h 6.26201 c 0.48225,0 0.87253,-0.31964 0.87253,-0.71352 v -0.98093 c 0.0808,0.0128 0.16292,0.0211 0.249,0.0211 h 0.35543 l 1.70036,1.07618 v -3.79464 z"
       inkscape:connector-curvature="0"
       style="fill:#cd0000;fill-opacity:1;stroke-width:0.009375" />
  </g>
  <path
     style="fill:none;stroke:#000000;stroke-width:0.89999998px;stroke-linecap:butt;stroke-linejoin:miter;stroke-opacity:1"
     d="m 65,6 c 0,9 0,9 0,9"
     id="path3777-7"
     inkscape:connector-curvature="0" />
  <path
     style="fill:none;stroke:#0afdf3;stroke-width:0.89999998px;stroke-linecap:butt;stroke-linejoin:miter;stroke-opacity:1"
     d="M 29,6 C 56,6 56,6 56,6"
     id="path3779-2"
     inkscape:connector-curvature="0" />
  <path
     style="fill:#3122ff;fill-opacity:1;stroke:#3122ff;stroke-width:0.63990003;stroke-linecap:butt;stroke-linejoin:miter;stroke-miterlimit:4;stroke-dasharray:0.63990003, 0.63990003;stroke-dashoffset:0;stroke-opacity:1"
     d="m 29.114435,8.0713509 c 13.642425,0 13.642425,0 13.642425,0"
     id="path3779-5-7"
     inkscape:connector-curvature="0" />
  <g
     transform="matrix(4.55625e-4,0,0,4.55625e-4,21.623555,16.723361)"
     style="stroke-width:1975.30859375;stroke-miterlimit:4;stroke-dasharray:none;image-rendering:optimizeQuality;shape-rendering:geometricPrecision;text-rendering:geometricPrecision"
     id="switch.dining_room_light2-9"
     inkscape:label="switch.dining_room_light2">
    <path
       inkscape:connector-curvature="0"
       class="fil0"
       d="m 31866.12,30047.31 c 2871.86,-2559.49 12329.56,-2501.6 15367.38,-6.86 193.4,158.79 159.98,188.38 160.54,-82.24 0.34,-158.2 -15.85,-172.88 -104.2,-310.24 -1894.2,-2945.41 -13571.23,-2980.12 -15467.08,-8.65 -80.5,126.2 -100.25,142.18 -100.25,288.04 -5.51,262.27 -10.11,256.95 143.61,119.95 z m 7455.33,-21566.9 c -231.12,7.24 -242.12,-344.16 -11.02,-351.4 930.24,-31.89 2253.23,73.06 3114.6,435.12 212.99,89.72 76.56,413.56 -136.42,323.84 -808.97,-340.04 -2093.29,-437.52 -2967.16,-407.56 z m 21209.66,30146.41 c 217.52,-78.84 337.38,251.88 119.88,330.72 -2009.12,726.83 -2987.25,295.19 -4804.4,-585.47 -208.43,-100.57 -55.52,-417.54 152.96,-316.94 1726.6,836.78 2622.17,1262.45 4531.56,571.69 z m 3893.74,-31195.5 c -201.2,-114.19 -27.57,-420.11 173.62,-305.92 1993.28,1133.17 2618.04,2890.26 843.77,4608.15 -165.84,161.31 -411.14,-90.85 -245.28,-252.18 1600.85,-1549.92 1014.52,-3034.35 -772.11,-4050.05 z M 46669.28,58079.05 c 365.05,181.5 599.34,554.15 599.34,964.19 v 6667.5 c 0,1415.81 -2151.96,1415.81 -2151.96,0 v -6667.5 c 0,-417.99 243.48,-796.61 619.37,-973.89 233.97,-110.31 192.03,-6.86 192.03,-303.08 V 36687.53 c 0,-556.5 20.3,-449.67 -633.2,-243.4 -553.04,174.56 -957.49,284.15 -1617.34,400.8 -2936.69,519.19 -6985.71,398.42 -9740.33,-445.48 -1556.44,-476.82 -2657.71,-1191.21 -2878.09,-2140.2 -53.42,-230.11 -42.14,-459.66 -42.14,-693.84 0,-1358.2 0,-2716.39 0,-4074.59 0,-386.48 66.96,-332.96 -314.04,-318.97 -7345.6,270.35 -14810.48,1081.2 -22079.92,2151.62 -2038.59,300.18 -4270.93,-79.2 -5426.36,-622.6 -1815.72,-853.92 -841.89,-1831.16 737.46,-2143.55 8152.25,-1612.46 18450.73,-2488.73 26786.3,-2688.54 366.49,-8.78 277.83,-0.51 306.19,-381.43 157.99,-2122.01 1075.16,-3562.6 2357.64,-4498.04 843.87,-614.62 1835.63,-985.18 2885.17,-1221.66 239.77,-54.01 175.65,-23.06 244.46,-267.76 215.64,-766.92 546,-1528.56 1243.76,-1973 223.28,-142.19 171.93,-74.39 171.93,-361.36 v -1477 c 0,-215.14 38.5,-179.59 -167.34,-206.61 -976.33,-128.27 -1828.75,-370.76 -2459.51,-688.58 -601.62,-303.15 -1018.24,-684.3 -1182.15,-1117.35 -69.25,-182.97 -93.28,-377.01 -67.38,-570.78 l -8.6,-3965.44 c -1.62,-756.34 469.25,-1199.19 1102.54,-1551.7 2000.16,-1113.36 5439.67,-1066.84 7599.2,-364.16 1068.95,347.82 1950.57,914.48 1950.57,1817.6 v 2391.35 c 0,552.21 -57.59,517.71 306.39,112.35 188.9,-210.38 379.87,-419.47 572.76,-626.87 2125.73,-2285.63 4488.14,-4370.96 6901.78,-5764.47 3626.12,-2093.53 9284.27,-1647.56 12848.26,378.61 3186.44,1811.53 4179.53,4640.88 1345.7,7384.63 -1128.84,1092.97 -2885.45,2554.23 -5898.67,4567.57 -2904.09,1940.4 -6978.6,4396.39 -12789.1,7534.13 -313.2,169.1 -256.44,83.08 -175.48,422.12 54.39,227.77 98.96,474.36 135.35,740.35 62.43,456.55 -32.05,358.08 416.92,483.38 2360.41,658.77 5235.99,1705.03 8124.89,2907.87 3315.25,1380.35 6656.82,2970.46 9263.34,4420.14 1589.11,883.79 2365.35,2198.72 671.99,3476.13 -1549.94,1169.21 -3327.28,2317.92 -5157.28,2979.95 -2572.27,930.57 -3784.01,421.53 -6197.29,-748.09 -2454.84,-1189.73 -5017.88,-2746.18 -7247.81,-4321.42 -337.07,-238.13 -198.61,-204.07 -502.34,56.69 -154.04,132.27 -328.72,256.39 -520.13,375.14 -398.72,247.35 -338.94,138.61 -338.94,691.26 V 57779.5 c 0,299.44 -29.56,179.46 212.06,299.55 z m -847.06,964.19 v 6667.5 c 0,486.97 740.84,486.97 740.84,0 v -6667.5 c 0,-480.67 -740.84,-480.67 -740.84,0 z M 30632.09,26574.07 c -8289.02,203.63 -18456.62,1071.62 -26562.95,2675.01 -796.59,157.55 -1443.25,597.29 -255.36,1008.65 1295.63,404.77 2803.17,648.83 4707.24,368.46 7312.01,-1076.7 14828.21,-1890.75 22216.88,-2159.25 355.48,-12.9 279.06,25.16 279.06,-351.96 v -1283.14 c 0,-327.55 -47.53,-266.05 -384.87,-257.77 z m 15014.17,6018.56 c -3113.15,-1364.79 -9071.18,-1364.79 -12184.33,0 -2805,1229.69 -1743.99,2391.99 679.2,3134.34 2652.49,812.62 6582.65,924.21 9415.13,423.44 1054.62,-186.45 2827.54,-613.81 3542.59,-1492.37 798.79,-981.55 -675.92,-1724.93 -1452.59,-2065.41 z m 2573.51,2207.57 c 2196.77,1552.75 4733.86,3094.33 7152.59,4266.56 2224.67,1078.16 3281.07,1578.09 5651.59,720.53 1769.32,-640.08 3474.75,-1750.8 4972.62,-2880.73 1242.55,-937.3 543.76,-1669.13 -589.31,-2299.29 -2578.83,-1434.27 -5894.71,-3011.58 -9191.68,-4384.32 -2771.26,-1153.85 -5522.94,-2160.67 -7804.44,-2813.29 -476.69,-136.36 -361.48,-148.54 -342.53,347.64 76.68,2002.78 22.62,4129.6 22.62,6146.78 0,132.74 -14.12,261.4 -41.59,385.99 -85.48,387.74 -190.69,255.07 170.13,510.13 z m -1412.06,-9178.96 c -994.21,415.19 -1598.58,239.51 -2745.97,-373.32 -1639.75,-875.79 -3063.95,-1325.83 -4903.21,-1667.57 -948.07,-176.1 -1329.75,-844.98 -1156.26,-1778.63 68.82,-370.42 227.44,-809.66 488.71,-1325.21 146.01,-288.07 169.81,-237.58 -183.45,-230.99 -1567.46,29.27 -3241.7,386.51 -4509.9,1311.53 -1141.65,832.72 -1953.63,2134.29 -2075.13,4073.75 l 0.01,2704.67 c 0,409 -64.03,392.36 219.95,168.4 3008.09,-2372.78 11881.34,-2392.95 15064.3,-118.69 458.12,327.36 388.71,447.94 371.04,-221.51 -21.08,-799.72 -57.22,-1652.16 -225.15,-2431.78 -61.59,-285.94 -100.35,-212.79 -344.94,-110.65 z M 60381.74,16900.4 c 2970.69,-1984.91 4695.17,-3418.46 5799.45,-4487.65 2487.66,-2408.58 1571.42,-4691.49 -1202.38,-6268.43 -3347.09,-1902.87 -8741.64,-2349.74 -12150.98,-381.37 -2343.29,1352.89 -4651.35,3393.04 -6736.42,5634.95 -1316.08,1415.07 -6947.24,8108.06 -7397.38,10530.6 -101.53,546.41 30.97,855.99 591.28,960.09 1892.6,351.65 3385.73,818.48 5078.08,1722.12 1044.46,557.78 1490.74,728.88 2585.96,164.36 4469.67,-2302.68 9243.43,-5075.76 13432.39,-7874.67 z M 43558.77,12612.62 c -275.67,-206.69 -669.29,-394.16 -1150.39,-550.46 -1833.49,-595.66 -4635.62,-586.45 -6426.19,124.7 -1262.39,501.36 -1815.78,1245.84 -362.55,1978.1 543.57,273.9 1282.05,486.52 2136.98,606.67 140.39,19.73 172.93,39.54 172.93,-126.4 0,-1274.07 2880.76,-1266.93 2880.76,0 0,185.8 -22.15,153.75 172.65,126.26 466.17,-65.86 935.08,-163.89 1382.39,-305.43 314.33,-99.46 267.03,-89.64 468.95,-344.8 248.82,-314.37 503.25,-629.17 762.87,-943.18 256.95,-310.79 334.99,-285.48 -38.4,-565.46 z m -1848.19,2748.16 c -232.89,47.42 -478.12,88.13 -733.99,121.42 -212.45,27.65 -166.28,-0.59 -166.28,228.12 v 886.34 c 0,322.37 -5.75,245.22 168.05,0.33 255.41,-359.91 520.35,-724.7 794.09,-1092.42 174.98,-235.06 180.3,-193.07 -61.87,-143.79 z m -1960.41,2505.26 c -541.67,-89.1 -1067.06,-41.59 -1499.49,195.5 -568.2,311.53 -841.3,812.87 -1001.3,1421.53 -45.58,173.38 -8.16,122.91 277.4,98.58 427.91,-36.47 855.24,-48.22 1274.41,-38.74 268.68,6.07 199.07,36.98 343.86,-195.72 233.03,-374.54 481.81,-762.8 745.18,-1161.74 184.38,-279.29 235.77,-257.62 -140.06,-319.41 z m -4668.86,-6023.18 c 191.68,-112.31 406.57,-215.75 641.82,-309.18 1949.87,-774.41 4907.01,-789.68 6902.97,-141.24 364.99,119.88 691.05,261.75 975.96,422.28 467.04,263.19 389.26,379.43 389.26,-231.93 V 9041.51 c 0,-524.4 -640.63,-891.56 -1452.4,-1142.27 -2007.64,-620.07 -5187.59,-733.28 -7050.05,303.43 -398.23,221.67 -742.51,468.12 -741.48,945.94 l 5.48,2531.19 c 1.09,494.77 -55.15,387.8 328.44,163.06 z m 3752.4,5312.37 c 365.87,-48.37 747.82,-37.92 1107.34,30.39 206.49,39.24 163.7,67 163.7,-165.61 v -2226.65 c 0,-149.59 29.55,-219.66 -132.72,-292.03 -276.83,-123.47 -910.46,-125.54 -1194.56,-5.64 -173.8,73.33 -142.36,144.28 -142.36,302.08 v 2173.73 c 0,261.38 -43,215.67 198.6,183.73 z m 1551.99,18573.56 c -231.11,0.91 -232.48,-350.49 -1.38,-351.4 1430.27,-9.56 3424.55,-181.95 4715.73,-828.86 206.62,-103.32 363.73,210.85 157.1,314.18 -1351.08,676.93 -3375.25,856.1 -4871.45,866.08 z m 6750.52,-4806.36 c -2281.52,-2707.58 -13050.47,-2685.05 -15193.31,29.84 -260.85,330.52 -220.39,330.16 -220.39,699.33 v 793.75 c 0,532.2 -53.65,419.65 332.44,136.28 322.44,-236.66 701.47,-447.88 1125.85,-633.92 3296.37,-1445.11 9450.2,-1445.11 12746.57,0 374.13,164.02 713.01,347.6 1008.95,550.93 534.48,367.21 449.34,527.27 449.34,-229.64 v -568.96 c 0,-407.22 30.53,-445.31 -249.45,-777.61 z"
       id="path6-5-5"
       style="stroke-width:1975.30859375;stroke-miterlimit:4;stroke-dasharray:none" />
  </g>
  <g
     transform="matrix(0.3138106,0,0,0.3138106,15.295772,-233.57827)"
     id="switch.living_room_light2-7"
     inkscape:label="switch.living_room_light2">
    <path
       inkscape:connector-curvature="0"
       style="color:#000000;text-indent:0;text-transform:none;direction:ltr;baseline-shift:baseline;display:inline;overflow:visible;visibility:visible;fill:#000000;fill-opacity:1;fill-rule:evenodd;stroke:none;enable-background:accumulate"
       d="m 49.305247,958.34841 c -0.2616,0.004 -0.5224,0.0599 -0.7626,0.16357 -0.2402,0.1037 -0.4597,0.25511 -0.642,0.44281 -0.1823,0.1877 -0.3273,0.41155 -0.4239,0.6547 -0.0966,0.24316 -0.1449,0.50542 -0.1412,0.76705 v 3.28 c -0.005,0.26489 0.0433,0.53068 0.1412,0.77686 0.098,0.24618 0.2454,0.47255 0.431,0.66165 0.1855,0.1891 0.4091,0.34076 0.6534,0.4433 0.2443,0.10254 0.5091,0.15587 0.774,0.15587 0.265,0 0.5298,-0.0533 0.7741,-0.15587 0.2443,-0.10254 0.4678,-0.2542 0.6534,-0.4433 0.1856,-0.1891 0.333,-0.41547 0.4309,-0.66165 0.0979,-0.24618 0.1463,-0.51197 0.1413,-0.77686 v -3.28 c 0.0038,-0.26662 -0.0465,-0.53389 -0.1468,-0.78094 -0.1004,-0.24705 -0.2507,-0.47366 -0.4393,-0.66214 -0.1886,-0.18848 -0.4154,-0.33866 -0.6625,-0.43882 -0.2471,-0.10016 -0.5144,-0.1502 -0.781,-0.14623 z"
       marker="none"
       visibility="visible"
       display="inline"
       overflow="visible"
       id="path2-1-30" />
    <path
       inkscape:connector-curvature="0"
       style="color:#000000;text-indent:0;text-transform:none;direction:ltr;baseline-shift:baseline;display:inline;overflow:visible;visibility:visible;fill:#000000;fill-opacity:1;fill-rule:evenodd;stroke:none;enable-background:accumulate"
       d="m 57.466447,960.45185 c -0.3566,-0.003 -0.7136,0.0915 -1.0219,0.27062 -0.3084,0.17915 -0.5673,0.44244 -0.7412,0.75375 l -1.64,2.84 c -0.1341,0.22683 -0.2227,0.48039 -0.259,0.74134 -0.0364,0.26094 -0.0206,0.52907 0.0463,0.78391 0.0669,0.25484 0.1848,0.49619 0.3446,0.70564 0.1598,0.20944 0.3615,0.38682 0.5897,0.51858 0.2282,0.13176 0.4826,0.21781 0.7439,0.25158 0.2613,0.0338 0.5292,0.0152 0.7834,-0.0542 0.2542,-0.0694 0.4943,-0.18971 0.7021,-0.35165 0.2079,-0.16193 0.3832,-0.3654 0.5127,-0.59487 l 1.64,-2.84 c 0.1793,-0.3006 0.2778,-0.64897 0.2823,-0.99899 0.0045,-0.35002 -0.0849,-0.70081 -0.2565,-1.00594 -0.1715,-0.30513 -0.4248,-0.56383 -0.7262,-0.74185 -0.3014,-0.17803 -0.6502,-0.27494 -1.0002,-0.2779 z"
       marker="none"
       visibility="visible"
       display="inline"
       overflow="visible"
       id="path4-4-2" />
    <path
       inkscape:connector-curvature="0"
       style="color:#000000;text-indent:0;text-transform:none;direction:ltr;baseline-shift:baseline;display:inline;overflow:visible;visibility:visible;fill:#000000;fill-opacity:1;fill-rule:evenodd;stroke:none;enable-background:accumulate"
       d="m 63.483647,966.33341 c -0.3797,-0.0122 -0.7622,0.0867 -1.0884,0.28125 l -2.84,1.64 c -0.2314,0.12841 -0.4369,0.30328 -0.6007,0.51118 -0.1638,0.20789 -0.2857,0.44862 -0.3563,0.70366 -0.0707,0.25505 -0.0901,0.52419 -0.0566,0.78672 0.0334,0.26253 0.1196,0.51823 0.252,0.74741 0.1323,0.22918 0.3107,0.43167 0.5214,0.59186 0.2106,0.16019 0.4534,0.27796 0.7096,0.34425 0.2562,0.0663 0.5257,0.081 0.7876,0.0431 0.2619,-0.0379 0.5161,-0.1285 0.743,-0.26475 l 2.84,-1.64 c 0.3782,-0.21142 0.6842,-0.54928 0.8574,-0.94645 0.1731,-0.39717 0.2124,-0.85135 0.1099,-1.27233 -0.1025,-0.42098 -0.3461,-0.80631 -0.6824,-1.07945 -0.3364,-0.27314 -0.7635,-0.43251 -1.1965,-0.44646 z"
       marker="none"
       visibility="visible"
       display="inline"
       overflow="visible"
       id="path6-2-2" />
    <path
       inkscape:connector-curvature="0"
       style="color:#000000;text-indent:0;text-transform:none;direction:ltr;baseline-shift:baseline;display:inline;overflow:visible;visibility:visible;fill:#000000;fill-opacity:1;fill-rule:evenodd;stroke:none;enable-background:accumulate"
       d="m 41.173647,960.58341 c -0.3448,0.0133 -0.6856,0.1178 -0.9786,0.29993 -0.293,0.18214 -0.5375,0.44152 -0.702,0.74476 -0.1645,0.30324 -0.2487,0.64962 -0.2417,0.99455 0.007,0.34493 0.1052,0.6876 0.282,0.98389 l 1.64,2.83999 c 0.1295,0.22947 0.3048,0.43294 0.5126,0.59488 0.2079,0.16193 0.448,0.28221 0.7022,0.35165 0.2541,0.0694 0.5221,0.088 0.7834,0.0542 0.2613,-0.0338 0.5157,-0.11982 0.7439,-0.25158 0.2281,-0.13176 0.4298,-0.30914 0.5897,-0.51858 0.1598,-0.20945 0.2777,-0.45081 0.3446,-0.70565 0.0669,-0.25484 0.0827,-0.52297 0.0463,-0.78391 -0.0364,-0.26095 -0.125,-0.51451 -0.259,-0.74134 l -1.64,-2.84 c -0.1789,-0.32006 -0.4476,-0.58925 -0.7674,-0.76863 -0.3198,-0.17937 -0.6896,-0.26839 -1.056,-0.25418 z"
       marker="none"
       visibility="visible"
       display="inline"
       overflow="visible"
       id="path8-4" />
    <path
       inkscape:connector-curvature="0"
       style="color:#000000;text-indent:0;text-transform:none;direction:ltr;baseline-shift:baseline;display:inline;overflow:visible;visibility:visible;fill:#000000;fill-opacity:1;fill-rule:evenodd;stroke:none;enable-background:accumulate"
       d="m 35.446447,966.55372 c -0.4446,-0.0168 -0.8936,0.12015 -1.2532,0.38218 -0.3596,0.26202 -0.6275,0.64745 -0.7478,1.07582 -0.0601,0.21419 -0.0841,0.43846 -0.0708,0.66052 0.0133,0.22207 0.0641,0.44184 0.1494,0.64729 0.1707,0.41089 0.4828,0.76148 0.8712,0.97857 l 2.84,1.64 c 0.2269,0.13624 0.4811,0.22682 0.743,0.26474 0.2619,0.0379 0.5313,0.0232 0.7875,-0.0431 0.2563,-0.0663 0.499,-0.18405 0.7097,-0.34425 0.2107,-0.16019 0.389,-0.36267 0.5214,-0.59185 0.1323,-0.22919 0.2185,-0.48488 0.252,-0.74741 0.0334,-0.26253 0.0141,-0.53168 -0.0566,-0.78672 -0.0706,-0.25505 -0.1926,-0.49578 -0.3563,-0.70367 -0.1638,-0.20789 -0.3693,-0.38277 -0.6007,-0.51117 l -2.84,-1.64001 c -0.2863,-0.17074 -0.6158,-0.2683 -0.9488,-0.28093 z"
       marker="none"
       visibility="visible"
       display="inline"
       overflow="visible"
       id="path10-6" />
    <path
       inkscape:connector-curvature="0"
       style="color:#000000;text-indent:0;text-transform:none;direction:ltr;baseline-shift:baseline;display:inline;overflow:visible;visibility:visible;fill:#000000;fill-opacity:1;fill-rule:evenodd;stroke:none;enable-background:accumulate"
       d="m 50.005247,969.20654 c -5.8921,0 -10.9199,3.95272 -12.185,9.34 h -15.985 c -0.3327,0 -0.665,0.0847 -0.9571,0.24388 -0.2921,0.1592 -0.5434,0.39258 -0.7237,0.67215 -0.1803,0.27957 -0.2892,0.60474 -0.3138,0.9365 -0.0245,0.33176 0.0355,0.66942 0.1727,0.97247 l 5.72,12.63 c 0.1576,0.3478 0.4171,0.64867 0.738,0.85558 0.3209,0.20691 0.7021,0.31913 1.0839,0.3191 h 16.15 v 38.61028 h -16.98 c -0.2618,0 -0.5235,0.052 -0.7654,0.1523 -0.2419,0.1002 -0.4637,0.2484 -0.6488,0.4335 -0.1851,0.1851 -0.3334,0.407 -0.4336,0.6489 -0.1002,0.2418 -0.1522,0.5035 -0.1522,0.7653 v 8.59 c 0,0.2618 0.0521,0.5235 0.1523,0.7653 0.1002,0.2418 0.2485,0.4636 0.4336,0.6487 0.1851,0.1851 0.4069,0.3333 0.6488,0.4335 0.2418,0.1002 0.5035,0.1522 0.7653,0.1522 h 46.55 c 0.2617,-10e-5 0.5234,-0.052 0.7652,-0.1523 0.2418,-0.1002 0.4636,-0.2484 0.6486,-0.4335 0.1851,-0.1851 0.3333,-0.4069 0.4335,-0.6487 0.1002,-0.2418 0.1522,-0.5034 0.1523,-0.7652 v -8.59 c 0,-0.2617 -0.0521,-0.5234 -0.1522,-0.7652 -0.1002,-0.2419 -0.2484,-0.4637 -0.4335,-0.6488 -0.185,-0.1852 -0.4068,-0.3334 -0.6487,-0.4336 -0.2418,-0.1002 -0.5034,-0.1523 -0.7652,-0.1524 h -16.9804 v -38.61028 h 16.1504 c 0.3817,-10e-5 0.7628,-0.1123 1.0837,-0.31921 0.3208,-0.2069 0.5802,-0.50773 0.7378,-0.85547 l 5.72,-12.63 c 0.1372,-0.30302 0.1971,-0.64064 0.1726,-0.97237 -0.0245,-0.33173 -0.1334,-0.65688 -0.3136,-0.93643 -0.1803,-0.27956 -0.4315,-0.51295 -0.7236,-0.67218 -0.292,-0.15922 -0.6243,-0.24395 -0.9569,-0.24402 h -15.9854 c -1.2648,-5.38728 -6.2902,-9.34 -12.1746,-9.34 z m 0,3.99968 c 3.7476,0 6.8558,2.25349 8.005,5.34032 -5.3401,0 -10.6803,0 -16.0204,0 1.149,-3.08683 4.2577,-5.34032 8.0154,-5.34032 z m -25.0691,9.34 c 16.7093,0 33.4185,0 50.1278,0 l -3.9087,8.63032 c -14.1035,0 -28.2069,0 -42.3104,0 z m 22.7687,12.63 c 1.5301,0 3.0603,0 4.5904,0 v 40.61028 c 0,0.2618 0.0521,0.5235 0.1523,0.7653 0.1002,0.2418 0.2485,0.4636 0.4336,0.6487 0.1851,0.1851 0.4069,0.3333 0.6488,0.4335 0.2418,0.1002 0.5035,0.1522 0.7653,0.1522 h 16.98 v 4.5903 h -42.5504 v -4.5903 h 16.9804 c 0.2617,-10e-5 0.5234,-0.052 0.7652,-0.1523 0.2418,-0.1002 0.4636,-0.2484 0.6486,-0.4335 0.1851,-0.1851 0.3333,-0.4069 0.4335,-0.6487 0.1002,-0.2418 0.1522,-0.5034 0.1523,-0.7652 z"
       marker="none"
       visibility="visible"
       display="inline"
       overflow="visible"
       id="path12-6" />
  </g>
  <g
     transform="matrix(0.3138106,0,0,0.3138106,134.80947,-292.25561)"
     id="switch.den_light-1"
     inkscape:label="switch.den_light">
    <path
       inkscape:connector-curvature="0"
       style="color:#000000;text-indent:0;text-transform:none;direction:ltr;baseline-shift:baseline;display:inline;overflow:visible;visibility:visible;fill:#000000;fill-opacity:1;fill-rule:evenodd;stroke:none;enable-background:accumulate"
       d="m 49.305247,958.34841 c -0.2616,0.004 -0.5224,0.0599 -0.7626,0.16357 -0.2402,0.1037 -0.4597,0.25511 -0.642,0.44281 -0.1823,0.1877 -0.3273,0.41155 -0.4239,0.6547 -0.0966,0.24316 -0.1449,0.50542 -0.1412,0.76705 v 3.28 c -0.005,0.26489 0.0433,0.53068 0.1412,0.77686 0.098,0.24618 0.2454,0.47255 0.431,0.66165 0.1855,0.1891 0.4091,0.34076 0.6534,0.4433 0.2443,0.10254 0.5091,0.15587 0.774,0.15587 0.265,0 0.5298,-0.0533 0.7741,-0.15587 0.2443,-0.10254 0.4678,-0.2542 0.6534,-0.4433 0.1856,-0.1891 0.333,-0.41547 0.4309,-0.66165 0.0979,-0.24618 0.1463,-0.51197 0.1413,-0.77686 v -3.28 c 0.0038,-0.26662 -0.0465,-0.53389 -0.1468,-0.78094 -0.1004,-0.24705 -0.2507,-0.47366 -0.4393,-0.66214 -0.1886,-0.18848 -0.4154,-0.33866 -0.6625,-0.43882 -0.2471,-0.10016 -0.5144,-0.1502 -0.781,-0.14623 z"
       marker="none"
       visibility="visible"
       display="inline"
       overflow="visible"
       id="path2-1-3-8" />
    <path
       inkscape:connector-curvature="0"
       style="color:#000000;text-indent:0;text-transform:none;direction:ltr;baseline-shift:baseline;display:inline;overflow:visible;visibility:visible;fill:#000000;fill-opacity:1;fill-rule:evenodd;stroke:none;enable-background:accumulate"
       d="m 57.466447,960.45185 c -0.3566,-0.003 -0.7136,0.0915 -1.0219,0.27062 -0.3084,0.17915 -0.5673,0.44244 -0.7412,0.75375 l -1.64,2.84 c -0.1341,0.22683 -0.2227,0.48039 -0.259,0.74134 -0.0364,0.26094 -0.0206,0.52907 0.0463,0.78391 0.0669,0.25484 0.1848,0.49619 0.3446,0.70564 0.1598,0.20944 0.3615,0.38682 0.5897,0.51858 0.2282,0.13176 0.4826,0.21781 0.7439,0.25158 0.2613,0.0338 0.5292,0.0152 0.7834,-0.0542 0.2542,-0.0694 0.4943,-0.18971 0.7021,-0.35165 0.2079,-0.16193 0.3832,-0.3654 0.5127,-0.59487 l 1.64,-2.84 c 0.1793,-0.3006 0.2778,-0.64897 0.2823,-0.99899 0.0045,-0.35002 -0.0849,-0.70081 -0.2565,-1.00594 -0.1715,-0.30513 -0.4248,-0.56383 -0.7262,-0.74185 -0.3014,-0.17803 -0.6502,-0.27494 -1.0002,-0.2779 z"
       marker="none"
       visibility="visible"
       display="inline"
       overflow="visible"
       id="path4-4-4-0" />
    <path
       inkscape:connector-curvature="0"
       style="color:#000000;text-indent:0;text-transform:none;direction:ltr;baseline-shift:baseline;display:inline;overflow:visible;visibility:visible;fill:#000000;fill-opacity:1;fill-rule:evenodd;stroke:none;enable-background:accumulate"
       d="m 63.483647,966.33341 c -0.3797,-0.0122 -0.7622,0.0867 -1.0884,0.28125 l -2.84,1.64 c -0.2314,0.12841 -0.4369,0.30328 -0.6007,0.51118 -0.1638,0.20789 -0.2857,0.44862 -0.3563,0.70366 -0.0707,0.25505 -0.0901,0.52419 -0.0566,0.78672 0.0334,0.26253 0.1196,0.51823 0.252,0.74741 0.1323,0.22918 0.3107,0.43167 0.5214,0.59186 0.2106,0.16019 0.4534,0.27796 0.7096,0.34425 0.2562,0.0663 0.5257,0.081 0.7876,0.0431 0.2619,-0.0379 0.5161,-0.1285 0.743,-0.26475 l 2.84,-1.64 c 0.3782,-0.21142 0.6842,-0.54928 0.8574,-0.94645 0.1731,-0.39717 0.2124,-0.85135 0.1099,-1.27233 -0.1025,-0.42098 -0.3461,-0.80631 -0.6824,-1.07945 -0.3364,-0.27314 -0.7635,-0.43251 -1.1965,-0.44646 z"
       marker="none"
       visibility="visible"
       display="inline"
       overflow="visible"
       id="path6-2-9-5" />
    <path
       inkscape:connector-curvature="0"
       style="color:#000000;text-indent:0;text-transform:none;direction:ltr;baseline-shift:baseline;display:inline;overflow:visible;visibility:visible;fill:#000000;fill-opacity:1;fill-rule:evenodd;stroke:none;enable-background:accumulate"
       d="m 41.173647,960.58341 c -0.3448,0.0133 -0.6856,0.1178 -0.9786,0.29993 -0.293,0.18214 -0.5375,0.44152 -0.702,0.74476 -0.1645,0.30324 -0.2487,0.64962 -0.2417,0.99455 0.007,0.34493 0.1052,0.6876 0.282,0.98389 l 1.64,2.83999 c 0.1295,0.22947 0.3048,0.43294 0.5126,0.59488 0.2079,0.16193 0.448,0.28221 0.7022,0.35165 0.2541,0.0694 0.5221,0.088 0.7834,0.0542 0.2613,-0.0338 0.5157,-0.11982 0.7439,-0.25158 0.2281,-0.13176 0.4298,-0.30914 0.5897,-0.51858 0.1598,-0.20945 0.2777,-0.45081 0.3446,-0.70565 0.0669,-0.25484 0.0827,-0.52297 0.0463,-0.78391 -0.0364,-0.26095 -0.125,-0.51451 -0.259,-0.74134 l -1.64,-2.84 c -0.1789,-0.32006 -0.4476,-0.58925 -0.7674,-0.76863 -0.3198,-0.17937 -0.6896,-0.26839 -1.056,-0.25418 z"
       marker="none"
       visibility="visible"
       display="inline"
       overflow="visible"
       id="path8-6-7" />
    <path
       inkscape:connector-curvature="0"
       style="color:#000000;text-indent:0;text-transform:none;direction:ltr;baseline-shift:baseline;display:inline;overflow:visible;visibility:visible;fill:#000000;fill-opacity:1;fill-rule:evenodd;stroke:none;enable-background:accumulate"
       d="m 35.446447,966.55372 c -0.4446,-0.0168 -0.8936,0.12015 -1.2532,0.38218 -0.3596,0.26202 -0.6275,0.64745 -0.7478,1.07582 -0.0601,0.21419 -0.0841,0.43846 -0.0708,0.66052 0.0133,0.22207 0.0641,0.44184 0.1494,0.64729 0.1707,0.41089 0.4828,0.76148 0.8712,0.97857 l 2.84,1.64 c 0.2269,0.13624 0.4811,0.22682 0.743,0.26474 0.2619,0.0379 0.5313,0.0232 0.7875,-0.0431 0.2563,-0.0663 0.499,-0.18405 0.7097,-0.34425 0.2107,-0.16019 0.389,-0.36267 0.5214,-0.59185 0.1323,-0.22919 0.2185,-0.48488 0.252,-0.74741 0.0334,-0.26253 0.0141,-0.53168 -0.0566,-0.78672 -0.0706,-0.25505 -0.1926,-0.49578 -0.3563,-0.70367 -0.1638,-0.20789 -0.3693,-0.38277 -0.6007,-0.51117 l -2.84,-1.64001 c -0.2863,-0.17074 -0.6158,-0.2683 -0.9488,-0.28093 z"
       marker="none"
       visibility="visible"
       display="inline"
       overflow="visible"
       id="path10-0-1" />
    <path
       inkscape:connector-curvature="0"
       style="color:#000000;text-indent:0;text-transform:none;direction:ltr;baseline-shift:baseline;display:inline;overflow:visible;visibility:visible;fill:#000000;fill-opacity:1;fill-rule:evenodd;stroke:none;enable-background:accumulate"
       d="m 50.005247,969.20654 c -5.8921,0 -10.9199,3.95272 -12.185,9.34 h -15.985 c -0.3327,0 -0.665,0.0847 -0.9571,0.24388 -0.2921,0.1592 -0.5434,0.39258 -0.7237,0.67215 -0.1803,0.27957 -0.2892,0.60474 -0.3138,0.9365 -0.0245,0.33176 0.0355,0.66942 0.1727,0.97247 l 5.72,12.63 c 0.1576,0.3478 0.4171,0.64867 0.738,0.85558 0.3209,0.20691 0.7021,0.31913 1.0839,0.3191 h 16.15 v 38.61028 h -16.98 c -0.2618,0 -0.5235,0.052 -0.7654,0.1523 -0.2419,0.1002 -0.4637,0.2484 -0.6488,0.4335 -0.1851,0.1851 -0.3334,0.407 -0.4336,0.6489 -0.1002,0.2418 -0.1522,0.5035 -0.1522,0.7653 v 8.59 c 0,0.2618 0.0521,0.5235 0.1523,0.7653 0.1002,0.2418 0.2485,0.4636 0.4336,0.6487 0.1851,0.1851 0.4069,0.3333 0.6488,0.4335 0.2418,0.1002 0.5035,0.1522 0.7653,0.1522 h 46.55 c 0.2617,-10e-5 0.5234,-0.052 0.7652,-0.1523 0.2418,-0.1002 0.4636,-0.2484 0.6486,-0.4335 0.1851,-0.1851 0.3333,-0.4069 0.4335,-0.6487 0.1002,-0.2418 0.1522,-0.5034 0.1523,-0.7652 v -8.59 c 0,-0.2617 -0.0521,-0.5234 -0.1522,-0.7652 -0.1002,-0.2419 -0.2484,-0.4637 -0.4335,-0.6488 -0.185,-0.1852 -0.4068,-0.3334 -0.6487,-0.4336 -0.2418,-0.1002 -0.5034,-0.1523 -0.7652,-0.1524 h -16.9804 v -38.61028 h 16.1504 c 0.3817,-10e-5 0.7628,-0.1123 1.0837,-0.31921 0.3208,-0.2069 0.5802,-0.50773 0.7378,-0.85547 l 5.72,-12.63 c 0.1372,-0.30302 0.1971,-0.64064 0.1726,-0.97237 -0.0245,-0.33173 -0.1334,-0.65688 -0.3136,-0.93643 -0.1803,-0.27956 -0.4315,-0.51295 -0.7236,-0.67218 -0.292,-0.15922 -0.6243,-0.24395 -0.9569,-0.24402 h -15.9854 c -1.2648,-5.38728 -6.2902,-9.34 -12.1746,-9.34 z m 0,3.99968 c 3.7476,0 6.8558,2.25349 8.005,5.34032 -5.3401,0 -10.6803,0 -16.0204,0 1.149,-3.08683 4.2577,-5.34032 8.0154,-5.34032 z m -25.0691,9.34 c 16.7093,0 33.4185,0 50.1278,0 l -3.9087,8.63032 c -14.1035,0 -28.2069,0 -42.3104,0 z m 22.7687,12.63 c 1.5301,0 3.0603,0 4.5904,0 v 40.61028 c 0,0.2618 0.0521,0.5235 0.1523,0.7653 0.1002,0.2418 0.2485,0.4636 0.4336,0.6487 0.1851,0.1851 0.4069,0.3333 0.6488,0.4335 0.2418,0.1002 0.5035,0.1522 0.7653,0.1522 h 16.98 v 4.5903 h -42.5504 v -4.5903 h 16.9804 c 0.2617,-10e-5 0.5234,-0.052 0.7652,-0.1523 0.2418,-0.1002 0.4636,-0.2484 0.6486,-0.4335 0.1851,-0.1851 0.3333,-0.4069 0.4335,-0.6487 0.1002,-0.2418 0.1522,-0.5034 0.1523,-0.7652 z"
       marker="none"
       visibility="visible"
       display="inline"
       overflow="visible"
       id="path12-2-0" />
  </g>
  <path
     inkscape:connector-curvature="0"
     d="m 183.70026,38.148063 -1.70869,-4.824441 1.57651,-4.450752 -1.64281,-11.313924 h -3.7956 l -1.64508,11.313924 1.57857,4.45095 -1.71096,4.824243 z m -4.24568,-11.904836 c -0.0822,-1.100488 -1.18306,-1.925699 -1.32038,-2.998803 -0.13733,-1.072693 0.57938,-1.807726 1.89193,-1.953702 0.73812,-0.08194 1.73998,0.165744 1.8771,1.238847 0.13776,1.072899 -1.45791,2.146002 -1.32037,3.188637 0.11653,0.884715 0.8845,1.89173 1.41714,2.781794 h -3.29157 c 0.24314,-0.528318 0.81265,-1.374327 0.74615,-2.256773 z m 0.44946,-8.006487 c 0.50794,0.346515 0.78752,0.820064 0.66174,1.236581 -0.17851,0.591937 -1.09946,0.838184 -2.05707,0.549113 -0.0173,-0.0051 -0.0323,-0.01318 -0.0494,-0.01874 l 0.25696,-1.766958 z m -2.59238,10.940852 h 5.42955 l -1.34858,3.807333 h -2.73032 z m 1.35065,4.485132 h 2.73011 l 1.34859,3.807747 h -5.42935 z"
     id="switch.neons-1"
     style="fill:#ff320d;fill-opacity:1;stroke-width:0.20589113"
     inkscape:label="switch.neons" />
  <rect
     style="fill:#0dfff5;fill-opacity:1;stroke:#000000;stroke-width:0.89999998;stroke-miterlimit:4;stroke-dasharray:none;stroke-dashoffset:0;stroke-opacity:1"
     id="switch.fishes-4"
     width="27"
     height="13.5"
     x="114.5"
     y="48.75"
     inkscape:label="switch.fishes" />
  <g
     transform="matrix(0.20589114,0,0,0.20589114,117.70551,45.205404)"
     id="switch.fishes2-9"
     inkscape:label="switch.fishes2">
    <path
       style="clip-rule:evenodd;fill-rule:evenodd"
       inkscape:connector-curvature="0"
       d="M 26.363,62.802 C 21.457,67.014 16.735,71.161 11.896,75.168 10.271,76.514 8.419,77.635 6.543,78.614 4.751,79.551 3.487,78.926 4.001,76.76 5.107,72.093 6.081,67.351 7.718,62.863 12.032,51.043 12.09,55.047 7.736,43.205 6.335,39.396 5.281,35.446 4.302,31.503 3.974,30.185 4.368,28.686 4.433,27.27 c 1.443,0.446 3.061,0.619 4.294,1.398 2.34,1.478 4.541,3.206 6.65,5.005 3.589,3.058 7.061,6.252 10.317,9.153 4.811,-3.276 9.564,-6.449 14.216,-9.766 0.52,-0.371 0.719,-1.588 0.618,-2.354 -0.249,-1.922 -0.805,-3.802 -1.146,-5.715 -0.498,-2.776 0.308,-3.854 3.057,-3.98 8.575,-0.393 16.5,1.692 23.789,6.263 1.466,0.92 3.073,1.683 4.707,2.258 10.373,3.65 18.341,10.193 24.055,19.577 1.523,2.503 1.467,4.799 0.021,7.286 C 87.418,69.455 69.25,82.942 47.116,75.356 36.989,71.886 35.586,71.04 26.363,62.802 Z M 74.56,52.928 c 3.918,-0.041 7.076,-3.251 7.021,-7.135 -0.057,-3.891 -3.286,-7.023 -7.192,-6.976 -3.902,0.048 -7.051,3.261 -7.006,7.149 0.043,3.891 3.252,7.004 7.177,6.962 z"
       id="path2-8-6" />
  </g>
  <path
     style="fill:none;stroke:#000000;stroke-width:0.89999998px;stroke-linecap:butt;stroke-linejoin:miter;stroke-opacity:1"
     d="M 137,64.5 V 69"
     id="path4694-5"
     inkscape:connector-curvature="0" />
  <path
     style="fill:none;stroke:#000000;stroke-width:0.89999998px;stroke-linecap:butt;stroke-linejoin:miter;stroke-opacity:1"
     d="m 137,78 v 9 h -27"
     id="path4696-7"
     inkscape:connector-curvature="0" />
  <path
     style="fill:none;stroke:#000000;stroke-width:0.89999998px;stroke-linecap:butt;stroke-linejoin:miter;stroke-opacity:1"
     d="m 132.5,100.5 v 9"
     id="path4700-6"
     inkscape:connector-curvature="0" />
  <path
     style="fill:none;stroke:#3122ff;stroke-width:0.89999998px;stroke-linecap:butt;stroke-linejoin:miter;stroke-opacity:1"
     d="m 132.5,87 v 13.5"
     id="path4702-7"
     inkscape:connector-curvature="0" />
  <path
     style="fill:none;stroke:#3122ff;stroke-width:0.89999998;stroke-linecap:butt;stroke-linejoin:miter;stroke-miterlimit:4;stroke-dasharray:0.9, 0.9;stroke-dashoffset:0;stroke-opacity:1"
     d="m 119,87 c 0,0 0,13.5 13.5,13.5"
     id="path4704-0"
     inkscape:connector-curvature="0" />
  <path
     style="fill:none;stroke:#000000;stroke-width:0.89999998px;stroke-linecap:butt;stroke-linejoin:miter;stroke-opacity:1"
     d="M 132.5,100.5 H 137"
     id="path4712-4"
     inkscape:connector-curvature="0" />
  <path
     style="fill:none;stroke:#000000;stroke-width:0.89999998px;stroke-linecap:butt;stroke-linejoin:miter;stroke-opacity:1"
     d="m 150.5,100.5 h 9 v 9"
     id="path4714-5"
     inkscape:connector-curvature="0" />
  <path
     style="fill:none;stroke:#3122ff;stroke-width:0.89999998px;stroke-linecap:butt;stroke-linejoin:miter;stroke-opacity:1"
     d="m 137,100.5 h 13.5"
     id="path4716-2"
     inkscape:connector-curvature="0" />
  <path
     style="fill:none;stroke:#3122ff;stroke-width:0.89999998;stroke-linecap:butt;stroke-linejoin:miter;stroke-miterlimit:4;stroke-dasharray:0.9, 0.9;stroke-dashoffset:0;stroke-opacity:1"
     d="m 150.5,100.5 -1.8,9 -2.7,-9"
     id="path4718-7"
     inkscape:connector-curvature="0" />
</svg>
